G04 #@! TF.FileFunction,Copper,L1,Top,Signal*
%FSLAX46Y46*%
G04 Gerber Fmt 4.6, Leading zero omitted, Abs format (unit mm)*
G04 Created by KiCad (PCBNEW 4.0.2+e4-6225~38~ubuntu15.10.1-stable) date Thu 22 Jun 2017 11:13:15 SAST*
%MOMM*%
G01*
G04 APERTURE LIST*
%ADD10C,0.150000*%
%ADD11C,0.381000*%
%ADD12R,1.699260X2.400300*%
%ADD13R,1.750060X0.398780*%
%ADD14R,2.067560X1.424940*%
%ADD15R,1.450340X2.141220*%
%ADD16R,0.635000X1.826260*%
%ADD17R,2.834640X1.600200*%
%ADD18C,1.600200*%
%ADD19C,1.450340*%
%ADD20C,2.540000*%
%ADD21R,2.100580X1.399540*%
%ADD22R,0.914400X0.914400*%
%ADD23R,1.524000X1.524000*%
%ADD24C,1.524000*%
%ADD25R,0.330200X0.408940*%
%ADD26R,1.998980X19.999960*%
%ADD27R,1.000760X19.999960*%
%ADD28R,12.999720X1.000760*%
%ADD29R,1.000760X11.998960*%
%ADD30R,5.999480X1.000760*%
%ADD31R,0.863600X0.863600*%
%ADD32R,0.711200X0.254000*%
%ADD33R,0.558800X0.508000*%
%ADD34R,0.508000X0.558800*%
%ADD35O,0.279400X1.000760*%
%ADD36O,1.000760X0.279400*%
%ADD37R,1.470660X1.470660*%
%ADD38C,1.399540*%
%ADD39C,0.787400*%
%ADD40C,1.066800*%
%ADD41C,0.203200*%
%ADD42C,1.270000*%
%ADD43C,0.508000*%
%ADD44C,0.254000*%
G04 APERTURE END LIST*
D10*
D11*
X115000000Y-139000000D02*
G75*
G03X121000000Y-145000000I6000000J0D01*
G01*
X176000000Y-145000000D02*
G75*
G03X182000000Y-139000000I0J6000000D01*
G01*
X121000000Y-74000000D02*
G75*
G03X115000000Y-80000000I0J-6000000D01*
G01*
X182000000Y-80000000D02*
G75*
G03X176000000Y-74000000I-6000000J0D01*
G01*
X115000000Y-139000000D02*
X115000000Y-80000000D01*
X176000000Y-74000000D02*
X121000000Y-74000000D01*
X182000000Y-139000000D02*
X182000000Y-80000000D01*
X121000000Y-145000000D02*
X176000000Y-145000000D01*
D12*
X154360880Y-115570000D03*
X158059120Y-115570000D03*
D13*
X121363740Y-100299520D03*
X121363740Y-100949760D03*
X121363740Y-101600000D03*
X121363740Y-102250240D03*
X121363740Y-102900480D03*
D14*
X118506240Y-100637340D03*
X118506240Y-102562660D03*
D15*
X121513600Y-98770440D03*
X121513600Y-104429560D03*
D16*
X120210580Y-98612960D03*
X120210580Y-104587040D03*
D17*
X119110760Y-98849180D03*
X119110760Y-104350820D03*
D18*
X118539260Y-98849180D03*
X118539260Y-104350820D03*
D19*
X121511060Y-99113340D03*
X121511060Y-104086660D03*
D20*
X140091160Y-80010000D03*
X165590220Y-80010000D03*
X157088840Y-80010000D03*
X148590000Y-80010000D03*
X131589780Y-80010000D03*
D21*
X175999140Y-94960440D03*
X166900860Y-94960440D03*
X175999140Y-90459560D03*
X166900860Y-90459560D03*
D22*
X136144000Y-97409000D03*
X136144000Y-95631000D03*
X138176000Y-96520000D03*
D20*
X170815000Y-117348000D03*
X168275000Y-114808000D03*
X168275000Y-119888000D03*
X173355000Y-119888000D03*
X173355000Y-114808000D03*
D23*
X160020000Y-86360000D03*
D24*
X160020000Y-88900000D03*
X157480000Y-86360000D03*
X157480000Y-88900000D03*
X154940000Y-86360000D03*
X154940000Y-88900000D03*
X152400000Y-86360000D03*
X152400000Y-88900000D03*
X149860000Y-86360000D03*
X149860000Y-88900000D03*
X147320000Y-86360000D03*
X147320000Y-88900000D03*
X144780000Y-86360000D03*
X144780000Y-88900000D03*
X142240000Y-86360000D03*
X142240000Y-88900000D03*
D23*
X124460000Y-111760000D03*
D24*
X124460000Y-109220000D03*
X127000000Y-111760000D03*
X127000000Y-109220000D03*
X129540000Y-111760000D03*
X129540000Y-109220000D03*
X132080000Y-111760000D03*
X132080000Y-109220000D03*
X134620000Y-111760000D03*
X134620000Y-109220000D03*
X137160000Y-111760000D03*
X137160000Y-109220000D03*
X139700000Y-111760000D03*
X139700000Y-109220000D03*
D23*
X124460000Y-88900000D03*
D24*
X124460000Y-86360000D03*
X127000000Y-88900000D03*
X127000000Y-86360000D03*
X129540000Y-88900000D03*
X129540000Y-86360000D03*
D25*
X162547300Y-117500400D03*
X162547300Y-116840000D03*
X162547300Y-116179600D03*
X161556700Y-116179600D03*
X161556700Y-116840000D03*
X161556700Y-117500400D03*
D26*
X162560000Y-131919980D03*
D27*
X169059860Y-131919980D03*
D28*
X162560000Y-141419580D03*
D29*
X156560520Y-135920480D03*
D30*
X154061160Y-130418840D03*
X149059900Y-141419580D03*
X144061180Y-130418840D03*
X139059920Y-141419580D03*
X134061200Y-130418840D03*
X129059940Y-141419580D03*
D29*
X151559260Y-135920480D03*
X146560540Y-135920480D03*
X141559280Y-135920480D03*
X136560560Y-135920480D03*
X131559300Y-135920480D03*
D31*
X165100000Y-99822000D03*
X165100000Y-98298000D03*
X142748000Y-114300000D03*
X144272000Y-114300000D03*
X142748000Y-116840000D03*
X144272000Y-116840000D03*
X164338000Y-86360000D03*
X165862000Y-86360000D03*
D32*
X165100000Y-86360000D03*
D31*
X155321000Y-101092000D03*
X153797000Y-101092000D03*
D32*
X154559000Y-101092000D03*
D31*
X129032000Y-105410000D03*
X127508000Y-105410000D03*
D32*
X128270000Y-105410000D03*
D31*
X148082000Y-116840000D03*
X146558000Y-116840000D03*
X148082000Y-114300000D03*
X146558000Y-114300000D03*
X132080000Y-114808000D03*
X132080000Y-116332000D03*
X147955000Y-107442000D03*
X146431000Y-107442000D03*
X147193000Y-105918000D03*
X145669000Y-105918000D03*
X147193000Y-104394000D03*
X145669000Y-104394000D03*
X162560000Y-99822000D03*
X162560000Y-98298000D03*
X133223000Y-94234000D03*
X134747000Y-94234000D03*
X133223000Y-98806000D03*
X134747000Y-98806000D03*
X162560000Y-120396000D03*
X162560000Y-118872000D03*
X167513000Y-111125000D03*
X169037000Y-111125000D03*
X129540000Y-116332000D03*
X129540000Y-114808000D03*
D33*
X165354000Y-119100600D03*
X165354000Y-120167400D03*
D34*
X168300400Y-112395000D03*
X167233600Y-112395000D03*
D33*
X164592000Y-114782600D03*
X164592000Y-115849400D03*
X163449000Y-104292400D03*
X163449000Y-103225600D03*
X163576000Y-114782600D03*
X163576000Y-115849400D03*
D34*
X164871400Y-117602000D03*
X163804600Y-117602000D03*
X156870400Y-112649000D03*
X155803600Y-112649000D03*
D33*
X160655000Y-114909600D03*
X160655000Y-115976400D03*
X152781000Y-115036600D03*
X152781000Y-116103400D03*
X159639000Y-115976400D03*
X159639000Y-114909600D03*
D34*
X156362400Y-108458000D03*
X155295600Y-108458000D03*
D31*
X162560000Y-118872000D03*
X164084000Y-118872000D03*
D33*
X165608000Y-115849400D03*
X165608000Y-114782600D03*
D31*
X150368000Y-105918000D03*
X150368000Y-104394000D03*
X150368000Y-107442000D03*
X150368000Y-108966000D03*
X151892000Y-99441000D03*
X151892000Y-100965000D03*
D35*
X163796980Y-106573320D03*
X163299140Y-106573320D03*
X162798760Y-106573320D03*
X162298380Y-106573320D03*
X161798000Y-106573320D03*
X161297620Y-106573320D03*
X160797240Y-106573320D03*
X160296860Y-106573320D03*
X159799020Y-106573320D03*
D36*
X158897320Y-107475020D03*
X158897320Y-107972860D03*
X158897320Y-108473240D03*
X158897320Y-108973620D03*
X158897320Y-109474000D03*
X158897320Y-109974380D03*
X158897320Y-110474760D03*
X158897320Y-110975140D03*
X158897320Y-111472980D03*
D35*
X159799020Y-112374680D03*
X160296860Y-112374680D03*
X160797240Y-112374680D03*
X161297620Y-112374680D03*
X161798000Y-112374680D03*
X162298380Y-112374680D03*
X162798760Y-112374680D03*
X163299140Y-112374680D03*
X163796980Y-112374680D03*
D36*
X164698680Y-111472980D03*
X164698680Y-110975140D03*
X164698680Y-110474760D03*
X164698680Y-109974380D03*
X164698680Y-109474000D03*
X164698680Y-108973620D03*
X164698680Y-108473240D03*
X164698680Y-107972860D03*
X164698680Y-107475020D03*
D37*
X161798000Y-109474000D03*
X161798000Y-110934500D03*
X161798000Y-108013500D03*
X163258500Y-109474000D03*
X160337500Y-109474000D03*
X163258500Y-110934500D03*
X163258500Y-108013500D03*
X160337500Y-108013500D03*
X160337500Y-110934500D03*
D38*
X163258500Y-110934500D03*
X163258500Y-109474000D03*
X163258500Y-108013500D03*
X161798000Y-108013500D03*
X161798000Y-109474000D03*
X161798000Y-110934500D03*
X160337500Y-108013500D03*
X160337500Y-109474000D03*
X160337500Y-110934500D03*
D39*
X122123200Y-95453200D03*
X122123200Y-94437200D03*
X143967200Y-98044000D03*
X142240000Y-103936800D03*
X170561000Y-97231200D03*
X171297600Y-97942400D03*
X171704000Y-98856800D03*
X172110400Y-99771200D03*
X172516800Y-100685600D03*
X141478000Y-103174800D03*
X143357600Y-97231200D03*
X148082000Y-113207800D03*
X141528800Y-97713800D03*
X143408400Y-98907600D03*
X149377400Y-113588800D03*
X172923200Y-101600000D03*
X123139200Y-94335600D03*
X146405600Y-83515200D03*
X157276800Y-108458000D03*
X158191200Y-112649000D03*
D40*
X171450000Y-109220000D03*
X130175000Y-105410000D03*
D39*
X163576000Y-114046000D03*
D40*
X134874000Y-102870000D03*
X152908000Y-102362000D03*
D39*
X165938200Y-111963200D03*
X160655000Y-114147600D03*
D40*
X167005000Y-86360000D03*
X156083000Y-106172000D03*
X151714200Y-113258600D03*
D39*
X164236400Y-113334800D03*
D40*
X151892000Y-97917000D03*
X166370000Y-105664000D03*
X134747000Y-97409000D03*
D39*
X163423600Y-105232200D03*
X160655000Y-116738400D03*
D40*
X122986800Y-102895400D03*
X133223000Y-93091000D03*
X170180000Y-111125000D03*
X132080000Y-98806000D03*
X151511000Y-108966000D03*
X141605000Y-114274600D03*
X166903400Y-89001600D03*
X141605000Y-116840000D03*
X176022000Y-89001600D03*
D39*
X164592000Y-120421400D03*
D40*
X154787600Y-112649000D03*
X167386000Y-81788000D03*
X154152600Y-108483400D03*
X139319000Y-96520000D03*
X127762000Y-102870000D03*
D39*
X159639000Y-116738400D03*
X165633400Y-117602000D03*
D40*
X151511000Y-104394000D03*
D39*
X152781000Y-114274600D03*
D40*
X165100000Y-100965000D03*
D39*
X169062400Y-112395000D03*
D40*
X163449000Y-102082600D03*
D39*
X164795200Y-116484400D03*
X163779200Y-116484400D03*
X165811200Y-116484400D03*
X160731200Y-102260400D03*
X157632400Y-102209600D03*
D41*
X120746520Y-94076520D02*
X122123200Y-95453200D01*
X157861000Y-110650020D02*
X154094180Y-110650020D01*
X144754600Y-80010000D02*
X148590000Y-80010000D01*
X139192000Y-114808000D02*
X142793720Y-111206280D01*
X142565120Y-77820520D02*
X122509280Y-77820520D01*
X120746520Y-79583280D02*
X120746520Y-94076520D01*
X122509280Y-77820520D02*
X120746520Y-79583280D01*
X158897320Y-110474760D02*
X158036260Y-110474760D01*
X154094180Y-110650020D02*
X153537920Y-111206280D01*
X139192000Y-114808000D02*
X132080000Y-114808000D01*
X144754600Y-80010000D02*
X142565120Y-77820520D01*
X142793720Y-111206280D02*
X153537920Y-111206280D01*
X132080000Y-111760000D02*
X132080000Y-114808000D01*
X158036260Y-110474760D02*
X157861000Y-110650020D01*
X121158000Y-79756000D02*
X121158000Y-93472000D01*
X153365200Y-110794800D02*
X153921460Y-110238540D01*
X121158000Y-93472000D02*
X122123200Y-94437200D01*
X121158000Y-79756000D02*
X122682000Y-78232000D01*
X122682000Y-78232000D02*
X138313160Y-78232000D01*
X157683200Y-110238540D02*
X153921460Y-110238540D01*
X125730000Y-110490000D02*
X142748000Y-110490000D01*
X138313160Y-78232000D02*
X140091160Y-80010000D01*
X157947360Y-109974380D02*
X158897320Y-109974380D01*
X143052800Y-110794800D02*
X153365200Y-110794800D01*
X142748000Y-110490000D02*
X143052800Y-110794800D01*
X157947360Y-109974380D02*
X157683200Y-110238540D01*
X124460000Y-111760000D02*
X125730000Y-110490000D01*
X161737040Y-105831640D02*
X161737040Y-104282240D01*
X160020000Y-102565200D02*
X160020000Y-88900000D01*
X161798000Y-105892600D02*
X161737040Y-105831640D01*
X161737040Y-104282240D02*
X160020000Y-102565200D01*
X161798000Y-106573320D02*
X161798000Y-105892600D01*
X158775400Y-87655400D02*
X157480000Y-86360000D01*
X161297620Y-106573320D02*
X161297620Y-104427020D01*
X158775400Y-90144600D02*
X158775400Y-87655400D01*
X159608520Y-90977720D02*
X158775400Y-90144600D01*
X161297620Y-104427020D02*
X159608520Y-102737920D01*
X159608520Y-102737920D02*
X159608520Y-90977720D01*
X159197040Y-102910640D02*
X159197040Y-91150440D01*
X160797240Y-106573320D02*
X160797240Y-104510840D01*
X160797240Y-104510840D02*
X159197040Y-102910640D01*
X159197040Y-91150440D02*
X157480000Y-89433400D01*
X157480000Y-89433400D02*
X157480000Y-88900000D01*
X158785560Y-92745560D02*
X156210000Y-90170000D01*
X158785560Y-103083360D02*
X158785560Y-92745560D01*
X160296860Y-104594660D02*
X158785560Y-103083360D01*
X156210000Y-90170000D02*
X156210000Y-87630000D01*
X156210000Y-87630000D02*
X154940000Y-86360000D01*
X160296860Y-106573320D02*
X160296860Y-104594660D01*
X159799020Y-104681020D02*
X158374080Y-103256080D01*
X158374080Y-92918280D02*
X154940000Y-89484200D01*
X154940000Y-89484200D02*
X154940000Y-88900000D01*
X159799020Y-106573320D02*
X159799020Y-104681020D01*
X158374080Y-103256080D02*
X158374080Y-92918280D01*
X151130000Y-90881200D02*
X151130000Y-87630000D01*
X143967200Y-98044000D02*
X151130000Y-90881200D01*
X141836140Y-104340660D02*
X142240000Y-103936800D01*
X144368520Y-109971840D02*
X141836140Y-107439460D01*
X153570940Y-109415580D02*
X153014680Y-109971840D01*
X153014680Y-109971840D02*
X144368520Y-109971840D01*
X141836140Y-107439460D02*
X141836140Y-104340660D01*
X141836140Y-107439460D02*
X141813280Y-107416600D01*
X151130000Y-87630000D02*
X152400000Y-86360000D01*
X158897320Y-108973620D02*
X157777180Y-108973620D01*
X157777180Y-108973620D02*
X157335220Y-109415580D01*
X157335220Y-109415580D02*
X153570940Y-109415580D01*
X166900860Y-94960440D02*
X175999140Y-94960440D01*
X162814000Y-93573600D02*
X162814000Y-86233000D01*
X166900860Y-102770940D02*
X166900860Y-94960440D01*
X153670000Y-85979000D02*
X153670000Y-87630000D01*
X166900860Y-94960440D02*
X164200840Y-94960440D01*
X164200840Y-94960440D02*
X162814000Y-93573600D01*
X162814000Y-86233000D02*
X161671000Y-85090000D01*
X163796980Y-105874820D02*
X166900860Y-102770940D01*
X161671000Y-85090000D02*
X154559000Y-85090000D01*
X153670000Y-87630000D02*
X152400000Y-88900000D01*
X154559000Y-85090000D02*
X153670000Y-85979000D01*
X163796980Y-106573320D02*
X163796980Y-105874820D01*
X164698680Y-107475020D02*
X167733980Y-107475020D01*
X167733980Y-107475020D02*
X170561000Y-104648000D01*
X170561000Y-104648000D02*
X170561000Y-97231200D01*
X167906700Y-107886500D02*
X170972480Y-104820720D01*
X170972480Y-104820720D02*
X170972480Y-98267520D01*
X165557200Y-107886500D02*
X167906700Y-107886500D01*
X164698680Y-107972860D02*
X165470840Y-107972860D01*
X165470840Y-107972860D02*
X165557200Y-107886500D01*
X170972480Y-98267520D02*
X171297600Y-97942400D01*
X164698680Y-108473240D02*
X165541960Y-108473240D01*
X168079420Y-108297980D02*
X171383960Y-104993440D01*
X171383960Y-104993440D02*
X171383960Y-99176840D01*
X165717220Y-108297980D02*
X168079420Y-108297980D01*
X171383960Y-99176840D02*
X171704000Y-98856800D01*
X165541960Y-108473240D02*
X165717220Y-108297980D01*
X165889940Y-108709460D02*
X168252140Y-108709460D01*
X164698680Y-108973620D02*
X165625780Y-108973620D01*
X171795440Y-105166160D02*
X171795440Y-100086160D01*
X165625780Y-108973620D02*
X165889940Y-108709460D01*
X168252140Y-108709460D02*
X171795440Y-105166160D01*
X171795440Y-100086160D02*
X172110400Y-99771200D01*
X172206920Y-105338880D02*
X172206920Y-100995480D01*
X164698680Y-109474000D02*
X165709600Y-109474000D01*
X166062660Y-109120940D02*
X168424860Y-109120940D01*
X172206920Y-100995480D02*
X172516800Y-100685600D01*
X165709600Y-109474000D02*
X166062660Y-109120940D01*
X168424860Y-109120940D02*
X172206920Y-105338880D01*
X141401800Y-107589320D02*
X144195800Y-110383320D01*
X144195800Y-110383320D02*
X153187400Y-110383320D01*
X157858460Y-109474000D02*
X157505400Y-109827060D01*
X158897320Y-109474000D02*
X157858460Y-109474000D01*
X143357600Y-97231200D02*
X144780000Y-95808800D01*
X157505400Y-109827060D02*
X153743660Y-109827060D01*
X141401800Y-107589320D02*
X141401800Y-103251000D01*
X144780000Y-95808800D02*
X144780000Y-88900000D01*
X153187400Y-110383320D02*
X153743660Y-109827060D01*
X141401800Y-103251000D02*
X141478000Y-103174800D01*
X153710640Y-111617760D02*
X154266900Y-111061500D01*
X141752320Y-90139520D02*
X140970000Y-89357200D01*
X158051500Y-111061500D02*
X158137860Y-110975140D01*
X158137860Y-110975140D02*
X158897320Y-110975140D01*
X142240000Y-86360000D02*
X140970000Y-87630000D01*
X140970000Y-89357200D02*
X140970000Y-87630000D01*
X141528800Y-97713800D02*
X141752320Y-97490280D01*
X149672040Y-111617760D02*
X153710640Y-111617760D01*
X148082000Y-113207800D02*
X148082000Y-114300000D01*
X141752320Y-97490280D02*
X141752320Y-90139520D01*
X149672040Y-111617760D02*
X148082000Y-113207800D01*
X154266900Y-111061500D02*
X158051500Y-111061500D01*
X158897320Y-111472980D02*
X154439620Y-111472980D01*
X150406100Y-112560100D02*
X149377400Y-113588800D01*
X142240000Y-97739200D02*
X142240000Y-88900000D01*
X149377400Y-115544600D02*
X148082000Y-116840000D01*
X153883360Y-112029240D02*
X150936960Y-112029240D01*
X150936960Y-112029240D02*
X150406100Y-112560100D01*
X154439620Y-111472980D02*
X153883360Y-112029240D01*
X149377400Y-113588800D02*
X149377400Y-115544600D01*
X143408400Y-98907600D02*
X142240000Y-97739200D01*
X146405600Y-83515200D02*
X145948400Y-83972400D01*
X145948400Y-83972400D02*
X135552180Y-83972400D01*
X131589780Y-80010000D02*
X135552180Y-83972400D01*
X166235380Y-109532420D02*
X168597580Y-109532420D01*
X122854720Y-78643480D02*
X121666000Y-79832200D01*
X121666000Y-92862400D02*
X123139200Y-94335600D01*
X130225800Y-78643480D02*
X122854720Y-78643480D01*
X121666000Y-79832200D02*
X121666000Y-92862400D01*
X172618400Y-105511600D02*
X172618400Y-101904800D01*
X165366700Y-109974380D02*
X165455600Y-109885480D01*
X165455600Y-109885480D02*
X165882320Y-109885480D01*
X165882320Y-109885480D02*
X166235380Y-109532420D01*
X168597580Y-109532420D02*
X172618400Y-105511600D01*
X172618400Y-101904800D02*
X172923200Y-101600000D01*
X129540000Y-111760000D02*
X129540000Y-114808000D01*
X165366700Y-109974380D02*
X164698680Y-109974380D01*
X131589780Y-80007460D02*
X131589780Y-80010000D01*
X131589780Y-80007460D02*
X130225800Y-78643480D01*
D42*
X133629400Y-95631000D02*
X127533400Y-95631000D01*
D41*
X121363740Y-100299520D02*
X122864880Y-100299520D01*
D43*
X123190000Y-99974400D02*
X123164600Y-99974400D01*
D41*
X122864880Y-100299520D02*
X123190000Y-99974400D01*
D42*
X127533400Y-95631000D02*
X123190000Y-99974400D01*
D43*
X134747000Y-94513400D02*
X134747000Y-94234000D01*
X134747000Y-94234000D02*
X136144000Y-95631000D01*
X134747000Y-94513400D02*
X133629400Y-95631000D01*
X163449000Y-104292400D02*
X163449000Y-105206800D01*
X164592000Y-113690400D02*
X164592000Y-114782600D01*
D41*
X162798760Y-112374680D02*
X162798760Y-113319560D01*
D43*
X156083000Y-106172000D02*
X152908000Y-102997000D01*
X163576000Y-114046000D02*
X163576000Y-114782600D01*
X163525200Y-114046000D02*
X162966400Y-113487200D01*
D41*
X163299140Y-105356660D02*
X163299140Y-106573320D01*
D43*
X163576000Y-114046000D02*
X163525200Y-114046000D01*
D41*
X162798760Y-113319560D02*
X162966400Y-113487200D01*
X161297620Y-112374680D02*
X161297620Y-113286540D01*
X165254940Y-110975140D02*
X165531800Y-111252000D01*
X164698680Y-111472980D02*
X165310820Y-111472980D01*
D43*
X163449000Y-105206800D02*
X163423600Y-105232200D01*
D41*
X164698680Y-110975140D02*
X165254940Y-110975140D01*
D43*
X160655000Y-114147600D02*
X160655000Y-114909600D01*
X129032000Y-105410000D02*
X130175000Y-105410000D01*
X134747000Y-98806000D02*
X136144000Y-97409000D01*
X158191200Y-112649000D02*
X156870400Y-112649000D01*
X165531800Y-111556800D02*
X165938200Y-111963200D01*
X160655000Y-113929160D02*
X160901380Y-113682780D01*
D41*
X165310820Y-111472980D02*
X165531800Y-111252000D01*
X159639000Y-112649000D02*
X159799020Y-112488980D01*
X161297620Y-113286540D02*
X160901380Y-113682780D01*
D43*
X160655000Y-114147600D02*
X160655000Y-113929160D01*
X157276800Y-108458000D02*
X156362400Y-108458000D01*
D41*
X159799020Y-112374680D02*
X159799020Y-112488980D01*
X163299140Y-105356660D02*
X163423600Y-105232200D01*
D43*
X165531800Y-111556800D02*
X165531800Y-111252000D01*
X158191200Y-112649000D02*
X159232600Y-112649000D01*
X167233600Y-112395000D02*
X166370000Y-112395000D01*
X164592000Y-113690400D02*
X164236400Y-113334800D01*
D41*
X163728400Y-113334800D02*
X164236400Y-113334800D01*
X163299140Y-112905540D02*
X163728400Y-113334800D01*
X158897320Y-108473240D02*
X157292040Y-108473240D01*
D43*
X134747000Y-98806000D02*
X134747000Y-97409000D01*
D41*
X163299140Y-112374680D02*
X163299140Y-112905540D01*
X157292040Y-108473240D02*
X157276800Y-108458000D01*
X159232600Y-112649000D02*
X159639000Y-112649000D01*
D43*
X166370000Y-112395000D02*
X165938200Y-111963200D01*
X165862000Y-86360000D02*
X167005000Y-86360000D01*
X152908000Y-102997000D02*
X152908000Y-102362000D01*
X163449000Y-103225600D02*
X163449000Y-102082600D01*
X169059860Y-120672860D02*
X168275000Y-119888000D01*
X159639000Y-115976400D02*
X159639000Y-116738400D01*
X150368000Y-104394000D02*
X151511000Y-104394000D01*
X133223000Y-94234000D02*
X133223000Y-93091000D01*
X164846000Y-120167400D02*
X164592000Y-120421400D01*
X155295600Y-108458000D02*
X154178000Y-108458000D01*
D41*
X121363740Y-102900480D02*
X122981720Y-102900480D01*
D43*
X133223000Y-98806000D02*
X132080000Y-98806000D01*
X169037000Y-111125000D02*
X170180000Y-111125000D01*
X166900860Y-89004140D02*
X166903400Y-89001600D01*
D42*
X127736600Y-102895400D02*
X127762000Y-102870000D01*
D43*
X154178000Y-108458000D02*
X154152600Y-108483400D01*
X152781000Y-115036600D02*
X152781000Y-114274600D01*
D41*
X168300400Y-112395000D02*
X169062400Y-112395000D01*
D43*
X165100000Y-99822000D02*
X165100000Y-100965000D01*
X163576000Y-116281200D02*
X163779200Y-116484400D01*
X175999140Y-89024460D02*
X176022000Y-89001600D01*
X165608000Y-80010000D02*
X167386000Y-81788000D01*
X160655000Y-115976400D02*
X160655000Y-116738400D01*
X165590220Y-80010000D02*
X165608000Y-80010000D01*
X164871400Y-117602000D02*
X165633400Y-117602000D01*
D41*
X122981720Y-102900480D02*
X122986800Y-102895400D01*
D43*
X142748000Y-114300000D02*
X141630400Y-114300000D01*
X169059860Y-131919980D02*
X169059860Y-120672860D01*
X175999140Y-90459560D02*
X175999140Y-89024460D01*
X155803600Y-112649000D02*
X154787600Y-112649000D01*
D42*
X122986800Y-102895400D02*
X127736600Y-102895400D01*
D43*
X138176000Y-96520000D02*
X139319000Y-96520000D01*
X142748000Y-116840000D02*
X141605000Y-116840000D01*
X165354000Y-120167400D02*
X164846000Y-120167400D01*
X166900860Y-90459560D02*
X166900860Y-89004140D01*
X164592000Y-115849400D02*
X164592000Y-116281200D01*
X150368000Y-108966000D02*
X151511000Y-108966000D01*
X164592000Y-116281200D02*
X164795200Y-116484400D01*
X165608000Y-115849400D02*
X165608000Y-116281200D01*
X165608000Y-116281200D02*
X165811200Y-116484400D01*
X141630400Y-114300000D02*
X141605000Y-114274600D01*
X163576000Y-115849400D02*
X163576000Y-116281200D01*
D41*
X157988000Y-80010000D02*
X164338000Y-86360000D01*
X157088840Y-80010000D02*
X157988000Y-80010000D01*
X165354000Y-119100600D02*
X164312600Y-119100600D01*
X164312600Y-119100600D02*
X164084000Y-118872000D01*
D42*
X166243000Y-118872000D02*
X167767000Y-117348000D01*
X167767000Y-117348000D02*
X170815000Y-117348000D01*
X164084000Y-118872000D02*
X166243000Y-118872000D01*
D41*
X146558000Y-114300000D02*
X144272000Y-114300000D01*
X144272000Y-116840000D02*
X146558000Y-116840000D01*
X161798000Y-112374680D02*
X161798000Y-113842800D01*
X161798000Y-113842800D02*
X161556700Y-114084100D01*
X161556700Y-116179600D02*
X161556700Y-115760500D01*
D43*
X161556700Y-115760500D02*
X161556700Y-114084100D01*
D41*
X162547300Y-116179600D02*
X162547300Y-115760500D01*
X162298380Y-113860580D02*
X162547300Y-114109500D01*
X162298380Y-112374680D02*
X162298380Y-113860580D01*
D43*
X162547300Y-115760500D02*
X162547300Y-114109500D01*
X163677600Y-117602000D02*
X162966400Y-116890800D01*
D41*
X162547300Y-116840000D02*
X162915600Y-116840000D01*
D43*
X163677600Y-117602000D02*
X163804600Y-117602000D01*
D41*
X162915600Y-116840000D02*
X162966400Y-116890800D01*
D42*
X162560000Y-120396000D02*
X162560000Y-131919980D01*
D41*
X162560000Y-118237000D02*
X162560000Y-117513100D01*
D42*
X162560000Y-118872000D02*
X162560000Y-118237000D01*
D41*
X162560000Y-117513100D02*
X162547300Y-117500400D01*
X165618160Y-110474760D02*
X165633400Y-110490000D01*
D43*
X166446200Y-111125000D02*
X167513000Y-111125000D01*
X166446200Y-111125000D02*
X165811200Y-110490000D01*
X165811200Y-110490000D02*
X165633400Y-110490000D01*
D41*
X164698680Y-110474760D02*
X165618160Y-110474760D01*
X162298380Y-105763060D02*
X162148520Y-105613200D01*
X162148520Y-105613200D02*
X162148520Y-104109520D01*
X162148520Y-104109520D02*
X160731200Y-102692200D01*
X160731200Y-102692200D02*
X160731200Y-102260400D01*
X157632400Y-102209600D02*
X156514800Y-101092000D01*
X156514800Y-101092000D02*
X155321000Y-101092000D01*
X162298380Y-106573320D02*
X162298380Y-105763060D01*
X153797000Y-101092000D02*
X152019000Y-101092000D01*
X152019000Y-101092000D02*
X151892000Y-100965000D01*
X147193000Y-103378000D02*
X149606000Y-100965000D01*
X149606000Y-100965000D02*
X151892000Y-100965000D01*
X147193000Y-104394000D02*
X147193000Y-103378000D01*
X162560000Y-98298000D02*
X165100000Y-98298000D01*
D43*
X126390400Y-105410000D02*
X127508000Y-105410000D01*
X124460000Y-109220000D02*
X124460000Y-107340400D01*
X124460000Y-107340400D02*
X126390400Y-105410000D01*
D41*
X143875760Y-100949760D02*
X146431000Y-103505000D01*
X146431000Y-103505000D02*
X146431000Y-107442000D01*
X121363740Y-100949760D02*
X143875760Y-100949760D01*
X157779720Y-107030520D02*
X151480520Y-107030520D01*
X158224220Y-107475020D02*
X157779720Y-107030520D01*
X151480520Y-107030520D02*
X150368000Y-105918000D01*
X158897320Y-107475020D02*
X158224220Y-107475020D01*
X147193000Y-105918000D02*
X150368000Y-105918000D01*
X145669000Y-103327200D02*
X145669000Y-104394000D01*
X123063000Y-101361240D02*
X143703040Y-101361240D01*
X145669000Y-104394000D02*
X145669000Y-105918000D01*
X121363740Y-101600000D02*
X122824240Y-101600000D01*
X143703040Y-101361240D02*
X145669000Y-103327200D01*
X122824240Y-101600000D02*
X123063000Y-101361240D01*
X160797240Y-112989360D02*
X159639000Y-114147600D01*
X160797240Y-112374680D02*
X160797240Y-112989360D01*
X159639000Y-114909600D02*
X158719520Y-114909600D01*
X158719520Y-114909600D02*
X158059120Y-115570000D01*
X159639000Y-114147600D02*
X159639000Y-114909600D01*
X163868100Y-112445800D02*
X163796980Y-112374680D01*
D43*
X165608000Y-114782600D02*
X165608000Y-113487200D01*
X164566600Y-112445800D02*
X164338000Y-112445800D01*
D41*
X164338000Y-112445800D02*
X163868100Y-112445800D01*
D43*
X165608000Y-113487200D02*
X164566600Y-112445800D01*
D41*
X153827480Y-116103400D02*
X154360880Y-115570000D01*
X155854400Y-113741200D02*
X154360880Y-115234720D01*
X152781000Y-116103400D02*
X153827480Y-116103400D01*
X159461200Y-113741200D02*
X155854400Y-113741200D01*
X160296860Y-112374680D02*
X160296860Y-112905540D01*
X160296860Y-112905540D02*
X159461200Y-113741200D01*
X154360880Y-115234720D02*
X154360880Y-115570000D01*
X162560000Y-105384600D02*
X162798760Y-105623360D01*
X162798760Y-105623360D02*
X162798760Y-106573320D01*
X162560000Y-99822000D02*
X162560000Y-105384600D01*
X158137860Y-107972860D02*
X157607000Y-107442000D01*
X157607000Y-107442000D02*
X150368000Y-107442000D01*
X158897320Y-107972860D02*
X158137860Y-107972860D01*
X147955000Y-107442000D02*
X150368000Y-107442000D01*
D44*
G36*
X144793329Y-103493239D02*
X144785759Y-103498110D01*
X144640769Y-103710310D01*
X144589760Y-103962200D01*
X144589760Y-104825800D01*
X144634038Y-105061117D01*
X144694697Y-105155384D01*
X144640769Y-105234310D01*
X144589760Y-105486200D01*
X144589760Y-106349800D01*
X144634038Y-106585117D01*
X144773110Y-106801241D01*
X144985310Y-106946231D01*
X145237200Y-106997240D01*
X145354384Y-106997240D01*
X145351760Y-107010200D01*
X145351760Y-107873800D01*
X145396038Y-108109117D01*
X145535110Y-108325241D01*
X145747310Y-108470231D01*
X145999200Y-108521240D01*
X146862800Y-108521240D01*
X147098117Y-108476962D01*
X147192384Y-108416303D01*
X147271310Y-108470231D01*
X147523200Y-108521240D01*
X148386800Y-108521240D01*
X148622117Y-108476962D01*
X148838241Y-108337890D01*
X148947079Y-108178600D01*
X149377749Y-108178600D01*
X149393697Y-108203384D01*
X149339769Y-108282310D01*
X149288760Y-108534200D01*
X149288760Y-109235240D01*
X144673630Y-109235240D01*
X142572740Y-107134350D01*
X142572740Y-104912369D01*
X142821950Y-104809398D01*
X143111581Y-104520272D01*
X143268521Y-104142319D01*
X143268878Y-103733077D01*
X143112598Y-103354850D01*
X142823472Y-103065219D01*
X142488264Y-102926028D01*
X142350598Y-102592850D01*
X142061472Y-102303219D01*
X141683519Y-102146279D01*
X141274277Y-102145922D01*
X140896050Y-102302202D01*
X140606419Y-102591328D01*
X140449479Y-102969281D01*
X140449122Y-103378523D01*
X140605402Y-103756750D01*
X140665200Y-103816652D01*
X140665200Y-107589320D01*
X140721270Y-107871205D01*
X140880945Y-108110175D01*
X142524170Y-109753400D01*
X140991163Y-109753400D01*
X141096757Y-109499100D01*
X141097242Y-108943339D01*
X140885010Y-108429697D01*
X140492370Y-108036371D01*
X139979100Y-107823243D01*
X139423339Y-107822758D01*
X138909697Y-108034990D01*
X138516371Y-108427630D01*
X138430051Y-108635512D01*
X138345010Y-108429697D01*
X137952370Y-108036371D01*
X137439100Y-107823243D01*
X136883339Y-107822758D01*
X136369697Y-108034990D01*
X135976371Y-108427630D01*
X135890051Y-108635512D01*
X135805010Y-108429697D01*
X135412370Y-108036371D01*
X134899100Y-107823243D01*
X134343339Y-107822758D01*
X133829697Y-108034990D01*
X133436371Y-108427630D01*
X133350051Y-108635512D01*
X133265010Y-108429697D01*
X132872370Y-108036371D01*
X132359100Y-107823243D01*
X131803339Y-107822758D01*
X131289697Y-108034990D01*
X130896371Y-108427630D01*
X130810051Y-108635512D01*
X130725010Y-108429697D01*
X130332370Y-108036371D01*
X129819100Y-107823243D01*
X129263339Y-107822758D01*
X128749697Y-108034990D01*
X128356371Y-108427630D01*
X128270051Y-108635512D01*
X128185010Y-108429697D01*
X127792370Y-108036371D01*
X127279100Y-107823243D01*
X126723339Y-107822758D01*
X126209697Y-108034990D01*
X125816371Y-108427630D01*
X125730051Y-108635512D01*
X125645010Y-108429697D01*
X125349000Y-108133170D01*
X125349000Y-107708636D01*
X126702580Y-106355056D01*
X126824310Y-106438231D01*
X127076200Y-106489240D01*
X127939800Y-106489240D01*
X128175117Y-106444962D01*
X128391241Y-106305890D01*
X128435584Y-106240991D01*
X128514310Y-106273600D01*
X128797050Y-106273600D01*
X128905000Y-106165650D01*
X128905000Y-106111795D01*
X129077041Y-106001090D01*
X129159000Y-105881139D01*
X129159000Y-106165650D01*
X129266950Y-106273600D01*
X129549690Y-106273600D01*
X129708395Y-106207863D01*
X129829862Y-106086395D01*
X129895600Y-105927691D01*
X129895600Y-105644950D01*
X129787650Y-105537000D01*
X129273040Y-105537000D01*
X129273040Y-105283000D01*
X129787650Y-105283000D01*
X129895600Y-105175050D01*
X129895600Y-104892309D01*
X129829862Y-104733605D01*
X129708395Y-104612137D01*
X129549690Y-104546400D01*
X129266950Y-104546400D01*
X129159000Y-104654350D01*
X129159000Y-104939270D01*
X129089690Y-104831559D01*
X128905000Y-104705366D01*
X128905000Y-104654350D01*
X128797050Y-104546400D01*
X128514310Y-104546400D01*
X128437106Y-104578378D01*
X128403890Y-104526759D01*
X128191690Y-104381769D01*
X127939800Y-104330760D01*
X127076200Y-104330760D01*
X126840883Y-104375038D01*
X126624759Y-104514110D01*
X126620051Y-104521000D01*
X126390400Y-104521000D01*
X126050194Y-104588671D01*
X125870253Y-104708904D01*
X125761782Y-104781382D01*
X123831382Y-106711782D01*
X123638671Y-107000194D01*
X123571000Y-107340400D01*
X123571000Y-108133515D01*
X123276371Y-108427630D01*
X123063243Y-108940900D01*
X123062758Y-109496661D01*
X123274990Y-110010303D01*
X123627833Y-110363763D01*
X123462683Y-110394838D01*
X123246559Y-110533910D01*
X123101569Y-110746110D01*
X123050560Y-110998000D01*
X123050560Y-112522000D01*
X123094838Y-112757317D01*
X123233910Y-112973441D01*
X123446110Y-113118431D01*
X123698000Y-113169440D01*
X125222000Y-113169440D01*
X125457317Y-113125162D01*
X125673441Y-112986090D01*
X125818431Y-112773890D01*
X125855492Y-112590876D01*
X126207630Y-112943629D01*
X126720900Y-113156757D01*
X127276661Y-113157242D01*
X127790303Y-112945010D01*
X128183629Y-112552370D01*
X128269949Y-112344488D01*
X128354990Y-112550303D01*
X128747630Y-112943629D01*
X128803400Y-112966787D01*
X128803400Y-113817749D01*
X128656759Y-113912110D01*
X128511769Y-114124310D01*
X128460760Y-114376200D01*
X128460760Y-115239800D01*
X128505038Y-115475117D01*
X128644110Y-115691241D01*
X128709009Y-115735584D01*
X128676400Y-115814310D01*
X128676400Y-116097050D01*
X128784350Y-116205000D01*
X129413000Y-116205000D01*
X129413000Y-116185000D01*
X129667000Y-116185000D01*
X129667000Y-116205000D01*
X130295650Y-116205000D01*
X130403600Y-116097050D01*
X130403600Y-115814310D01*
X130371622Y-115737106D01*
X130423241Y-115703890D01*
X130568231Y-115491690D01*
X130619240Y-115239800D01*
X130619240Y-114376200D01*
X130574962Y-114140883D01*
X130435890Y-113924759D01*
X130276600Y-113815921D01*
X130276600Y-112967200D01*
X130330303Y-112945010D01*
X130723629Y-112552370D01*
X130809949Y-112344488D01*
X130894990Y-112550303D01*
X131287630Y-112943629D01*
X131343400Y-112966787D01*
X131343400Y-113817749D01*
X131196759Y-113912110D01*
X131051769Y-114124310D01*
X131000760Y-114376200D01*
X131000760Y-115239800D01*
X131045038Y-115475117D01*
X131184110Y-115691241D01*
X131249009Y-115735584D01*
X131216400Y-115814310D01*
X131216400Y-116097050D01*
X131324350Y-116205000D01*
X131953000Y-116205000D01*
X131953000Y-116185000D01*
X132207000Y-116185000D01*
X132207000Y-116205000D01*
X132835650Y-116205000D01*
X132943600Y-116097050D01*
X132943600Y-115814310D01*
X132911622Y-115737106D01*
X132963241Y-115703890D01*
X133072079Y-115544600D01*
X139192000Y-115544600D01*
X139473885Y-115488530D01*
X139712855Y-115328855D01*
X140465438Y-114576272D01*
X140613901Y-114935581D01*
X140942291Y-115264543D01*
X141371571Y-115442796D01*
X141836389Y-115443202D01*
X142098087Y-115335071D01*
X142316200Y-115379240D01*
X143179800Y-115379240D01*
X143415117Y-115334962D01*
X143509384Y-115274303D01*
X143588310Y-115328231D01*
X143840200Y-115379240D01*
X144703800Y-115379240D01*
X144939117Y-115334962D01*
X145155241Y-115195890D01*
X145264079Y-115036600D01*
X145567749Y-115036600D01*
X145662110Y-115183241D01*
X145874310Y-115328231D01*
X146126200Y-115379240D01*
X146989800Y-115379240D01*
X147225117Y-115334962D01*
X147319384Y-115274303D01*
X147398310Y-115328231D01*
X147650200Y-115379240D01*
X148501050Y-115379240D01*
X148119530Y-115760760D01*
X147650200Y-115760760D01*
X147414883Y-115805038D01*
X147320616Y-115865697D01*
X147241690Y-115811769D01*
X146989800Y-115760760D01*
X146126200Y-115760760D01*
X145890883Y-115805038D01*
X145674759Y-115944110D01*
X145565921Y-116103400D01*
X145262251Y-116103400D01*
X145167890Y-115956759D01*
X144955690Y-115811769D01*
X144703800Y-115760760D01*
X143840200Y-115760760D01*
X143604883Y-115805038D01*
X143510616Y-115865697D01*
X143431690Y-115811769D01*
X143179800Y-115760760D01*
X142316200Y-115760760D01*
X142134841Y-115794885D01*
X141838429Y-115671804D01*
X141373611Y-115671398D01*
X140944019Y-115848901D01*
X140615057Y-116177291D01*
X140436804Y-116606571D01*
X140436398Y-117071389D01*
X140613901Y-117500981D01*
X140942291Y-117829943D01*
X141371571Y-118008196D01*
X141836389Y-118008602D01*
X142139341Y-117883425D01*
X142316200Y-117919240D01*
X143179800Y-117919240D01*
X143415117Y-117874962D01*
X143509384Y-117814303D01*
X143588310Y-117868231D01*
X143840200Y-117919240D01*
X144703800Y-117919240D01*
X144939117Y-117874962D01*
X145155241Y-117735890D01*
X145264079Y-117576600D01*
X145567749Y-117576600D01*
X145662110Y-117723241D01*
X145874310Y-117868231D01*
X146126200Y-117919240D01*
X146989800Y-117919240D01*
X147225117Y-117874962D01*
X147319384Y-117814303D01*
X147398310Y-117868231D01*
X147650200Y-117919240D01*
X148513800Y-117919240D01*
X148749117Y-117874962D01*
X148965241Y-117735890D01*
X149110231Y-117523690D01*
X149161240Y-117271800D01*
X149161240Y-116802470D01*
X149898255Y-116065455D01*
X150057930Y-115826485D01*
X150114000Y-115544600D01*
X150114000Y-114307018D01*
X150248981Y-114172272D01*
X150405921Y-113794319D01*
X150406089Y-113601821D01*
X151242070Y-112765840D01*
X153619098Y-112765840D01*
X153618998Y-112880389D01*
X153796501Y-113309981D01*
X154124891Y-113638943D01*
X154187643Y-113665000D01*
X153625996Y-113665000D01*
X153364472Y-113403019D01*
X152986519Y-113246079D01*
X152577277Y-113245722D01*
X152199050Y-113402002D01*
X151909419Y-113691128D01*
X151752479Y-114069081D01*
X151752122Y-114478323D01*
X151861951Y-114744129D01*
X151854160Y-114782600D01*
X151854160Y-115290600D01*
X151898438Y-115525917D01*
X151925428Y-115567860D01*
X151905169Y-115597510D01*
X151854160Y-115849400D01*
X151854160Y-116357400D01*
X151898438Y-116592717D01*
X152037510Y-116808841D01*
X152249710Y-116953831D01*
X152501600Y-117004840D01*
X152527000Y-117004840D01*
X152527000Y-121793000D01*
X118236690Y-121793000D01*
X118223893Y-116566950D01*
X128676400Y-116566950D01*
X128676400Y-116849690D01*
X128742137Y-117008395D01*
X128863605Y-117129862D01*
X129022309Y-117195600D01*
X129305050Y-117195600D01*
X129413000Y-117087650D01*
X129413000Y-116459000D01*
X129667000Y-116459000D01*
X129667000Y-117087650D01*
X129774950Y-117195600D01*
X130057691Y-117195600D01*
X130216395Y-117129862D01*
X130337863Y-117008395D01*
X130403600Y-116849690D01*
X130403600Y-116566950D01*
X131216400Y-116566950D01*
X131216400Y-116849690D01*
X131282137Y-117008395D01*
X131403605Y-117129862D01*
X131562309Y-117195600D01*
X131845050Y-117195600D01*
X131953000Y-117087650D01*
X131953000Y-116459000D01*
X132207000Y-116459000D01*
X132207000Y-117087650D01*
X132314950Y-117195600D01*
X132597691Y-117195600D01*
X132756395Y-117129862D01*
X132877863Y-117008395D01*
X132943600Y-116849690D01*
X132943600Y-116566950D01*
X132835650Y-116459000D01*
X132207000Y-116459000D01*
X131953000Y-116459000D01*
X131324350Y-116459000D01*
X131216400Y-116566950D01*
X130403600Y-116566950D01*
X130295650Y-116459000D01*
X129667000Y-116459000D01*
X129413000Y-116459000D01*
X128784350Y-116459000D01*
X128676400Y-116566950D01*
X118223893Y-116566950D01*
X118197522Y-105798360D01*
X119330376Y-105798360D01*
X119428990Y-105951611D01*
X119641190Y-106096601D01*
X119893080Y-106147610D01*
X120528080Y-106147610D01*
X120663034Y-106122217D01*
X120788430Y-106147610D01*
X122238770Y-106147610D01*
X122474087Y-106103332D01*
X122690211Y-105964260D01*
X122835201Y-105752060D01*
X122886210Y-105500170D01*
X122886210Y-104145391D01*
X122986800Y-104165400D01*
X127736595Y-104165400D01*
X127736600Y-104165401D01*
X128222608Y-104068727D01*
X128634626Y-103793426D01*
X128660026Y-103768026D01*
X128935327Y-103356008D01*
X129032001Y-102870000D01*
X128935327Y-102383992D01*
X128744127Y-102097840D01*
X143397930Y-102097840D01*
X144793329Y-103493239D01*
X144793329Y-103493239D01*
G37*
X144793329Y-103493239D02*
X144785759Y-103498110D01*
X144640769Y-103710310D01*
X144589760Y-103962200D01*
X144589760Y-104825800D01*
X144634038Y-105061117D01*
X144694697Y-105155384D01*
X144640769Y-105234310D01*
X144589760Y-105486200D01*
X144589760Y-106349800D01*
X144634038Y-106585117D01*
X144773110Y-106801241D01*
X144985310Y-106946231D01*
X145237200Y-106997240D01*
X145354384Y-106997240D01*
X145351760Y-107010200D01*
X145351760Y-107873800D01*
X145396038Y-108109117D01*
X145535110Y-108325241D01*
X145747310Y-108470231D01*
X145999200Y-108521240D01*
X146862800Y-108521240D01*
X147098117Y-108476962D01*
X147192384Y-108416303D01*
X147271310Y-108470231D01*
X147523200Y-108521240D01*
X148386800Y-108521240D01*
X148622117Y-108476962D01*
X148838241Y-108337890D01*
X148947079Y-108178600D01*
X149377749Y-108178600D01*
X149393697Y-108203384D01*
X149339769Y-108282310D01*
X149288760Y-108534200D01*
X149288760Y-109235240D01*
X144673630Y-109235240D01*
X142572740Y-107134350D01*
X142572740Y-104912369D01*
X142821950Y-104809398D01*
X143111581Y-104520272D01*
X143268521Y-104142319D01*
X143268878Y-103733077D01*
X143112598Y-103354850D01*
X142823472Y-103065219D01*
X142488264Y-102926028D01*
X142350598Y-102592850D01*
X142061472Y-102303219D01*
X141683519Y-102146279D01*
X141274277Y-102145922D01*
X140896050Y-102302202D01*
X140606419Y-102591328D01*
X140449479Y-102969281D01*
X140449122Y-103378523D01*
X140605402Y-103756750D01*
X140665200Y-103816652D01*
X140665200Y-107589320D01*
X140721270Y-107871205D01*
X140880945Y-108110175D01*
X142524170Y-109753400D01*
X140991163Y-109753400D01*
X141096757Y-109499100D01*
X141097242Y-108943339D01*
X140885010Y-108429697D01*
X140492370Y-108036371D01*
X139979100Y-107823243D01*
X139423339Y-107822758D01*
X138909697Y-108034990D01*
X138516371Y-108427630D01*
X138430051Y-108635512D01*
X138345010Y-108429697D01*
X137952370Y-108036371D01*
X137439100Y-107823243D01*
X136883339Y-107822758D01*
X136369697Y-108034990D01*
X135976371Y-108427630D01*
X135890051Y-108635512D01*
X135805010Y-108429697D01*
X135412370Y-108036371D01*
X134899100Y-107823243D01*
X134343339Y-107822758D01*
X133829697Y-108034990D01*
X133436371Y-108427630D01*
X133350051Y-108635512D01*
X133265010Y-108429697D01*
X132872370Y-108036371D01*
X132359100Y-107823243D01*
X131803339Y-107822758D01*
X131289697Y-108034990D01*
X130896371Y-108427630D01*
X130810051Y-108635512D01*
X130725010Y-108429697D01*
X130332370Y-108036371D01*
X129819100Y-107823243D01*
X129263339Y-107822758D01*
X128749697Y-108034990D01*
X128356371Y-108427630D01*
X128270051Y-108635512D01*
X128185010Y-108429697D01*
X127792370Y-108036371D01*
X127279100Y-107823243D01*
X126723339Y-107822758D01*
X126209697Y-108034990D01*
X125816371Y-108427630D01*
X125730051Y-108635512D01*
X125645010Y-108429697D01*
X125349000Y-108133170D01*
X125349000Y-107708636D01*
X126702580Y-106355056D01*
X126824310Y-106438231D01*
X127076200Y-106489240D01*
X127939800Y-106489240D01*
X128175117Y-106444962D01*
X128391241Y-106305890D01*
X128435584Y-106240991D01*
X128514310Y-106273600D01*
X128797050Y-106273600D01*
X128905000Y-106165650D01*
X128905000Y-106111795D01*
X129077041Y-106001090D01*
X129159000Y-105881139D01*
X129159000Y-106165650D01*
X129266950Y-106273600D01*
X129549690Y-106273600D01*
X129708395Y-106207863D01*
X129829862Y-106086395D01*
X129895600Y-105927691D01*
X129895600Y-105644950D01*
X129787650Y-105537000D01*
X129273040Y-105537000D01*
X129273040Y-105283000D01*
X129787650Y-105283000D01*
X129895600Y-105175050D01*
X129895600Y-104892309D01*
X129829862Y-104733605D01*
X129708395Y-104612137D01*
X129549690Y-104546400D01*
X129266950Y-104546400D01*
X129159000Y-104654350D01*
X129159000Y-104939270D01*
X129089690Y-104831559D01*
X128905000Y-104705366D01*
X128905000Y-104654350D01*
X128797050Y-104546400D01*
X128514310Y-104546400D01*
X128437106Y-104578378D01*
X128403890Y-104526759D01*
X128191690Y-104381769D01*
X127939800Y-104330760D01*
X127076200Y-104330760D01*
X126840883Y-104375038D01*
X126624759Y-104514110D01*
X126620051Y-104521000D01*
X126390400Y-104521000D01*
X126050194Y-104588671D01*
X125870253Y-104708904D01*
X125761782Y-104781382D01*
X123831382Y-106711782D01*
X123638671Y-107000194D01*
X123571000Y-107340400D01*
X123571000Y-108133515D01*
X123276371Y-108427630D01*
X123063243Y-108940900D01*
X123062758Y-109496661D01*
X123274990Y-110010303D01*
X123627833Y-110363763D01*
X123462683Y-110394838D01*
X123246559Y-110533910D01*
X123101569Y-110746110D01*
X123050560Y-110998000D01*
X123050560Y-112522000D01*
X123094838Y-112757317D01*
X123233910Y-112973441D01*
X123446110Y-113118431D01*
X123698000Y-113169440D01*
X125222000Y-113169440D01*
X125457317Y-113125162D01*
X125673441Y-112986090D01*
X125818431Y-112773890D01*
X125855492Y-112590876D01*
X126207630Y-112943629D01*
X126720900Y-113156757D01*
X127276661Y-113157242D01*
X127790303Y-112945010D01*
X128183629Y-112552370D01*
X128269949Y-112344488D01*
X128354990Y-112550303D01*
X128747630Y-112943629D01*
X128803400Y-112966787D01*
X128803400Y-113817749D01*
X128656759Y-113912110D01*
X128511769Y-114124310D01*
X128460760Y-114376200D01*
X128460760Y-115239800D01*
X128505038Y-115475117D01*
X128644110Y-115691241D01*
X128709009Y-115735584D01*
X128676400Y-115814310D01*
X128676400Y-116097050D01*
X128784350Y-116205000D01*
X129413000Y-116205000D01*
X129413000Y-116185000D01*
X129667000Y-116185000D01*
X129667000Y-116205000D01*
X130295650Y-116205000D01*
X130403600Y-116097050D01*
X130403600Y-115814310D01*
X130371622Y-115737106D01*
X130423241Y-115703890D01*
X130568231Y-115491690D01*
X130619240Y-115239800D01*
X130619240Y-114376200D01*
X130574962Y-114140883D01*
X130435890Y-113924759D01*
X130276600Y-113815921D01*
X130276600Y-112967200D01*
X130330303Y-112945010D01*
X130723629Y-112552370D01*
X130809949Y-112344488D01*
X130894990Y-112550303D01*
X131287630Y-112943629D01*
X131343400Y-112966787D01*
X131343400Y-113817749D01*
X131196759Y-113912110D01*
X131051769Y-114124310D01*
X131000760Y-114376200D01*
X131000760Y-115239800D01*
X131045038Y-115475117D01*
X131184110Y-115691241D01*
X131249009Y-115735584D01*
X131216400Y-115814310D01*
X131216400Y-116097050D01*
X131324350Y-116205000D01*
X131953000Y-116205000D01*
X131953000Y-116185000D01*
X132207000Y-116185000D01*
X132207000Y-116205000D01*
X132835650Y-116205000D01*
X132943600Y-116097050D01*
X132943600Y-115814310D01*
X132911622Y-115737106D01*
X132963241Y-115703890D01*
X133072079Y-115544600D01*
X139192000Y-115544600D01*
X139473885Y-115488530D01*
X139712855Y-115328855D01*
X140465438Y-114576272D01*
X140613901Y-114935581D01*
X140942291Y-115264543D01*
X141371571Y-115442796D01*
X141836389Y-115443202D01*
X142098087Y-115335071D01*
X142316200Y-115379240D01*
X143179800Y-115379240D01*
X143415117Y-115334962D01*
X143509384Y-115274303D01*
X143588310Y-115328231D01*
X143840200Y-115379240D01*
X144703800Y-115379240D01*
X144939117Y-115334962D01*
X145155241Y-115195890D01*
X145264079Y-115036600D01*
X145567749Y-115036600D01*
X145662110Y-115183241D01*
X145874310Y-115328231D01*
X146126200Y-115379240D01*
X146989800Y-115379240D01*
X147225117Y-115334962D01*
X147319384Y-115274303D01*
X147398310Y-115328231D01*
X147650200Y-115379240D01*
X148501050Y-115379240D01*
X148119530Y-115760760D01*
X147650200Y-115760760D01*
X147414883Y-115805038D01*
X147320616Y-115865697D01*
X147241690Y-115811769D01*
X146989800Y-115760760D01*
X146126200Y-115760760D01*
X145890883Y-115805038D01*
X145674759Y-115944110D01*
X145565921Y-116103400D01*
X145262251Y-116103400D01*
X145167890Y-115956759D01*
X144955690Y-115811769D01*
X144703800Y-115760760D01*
X143840200Y-115760760D01*
X143604883Y-115805038D01*
X143510616Y-115865697D01*
X143431690Y-115811769D01*
X143179800Y-115760760D01*
X142316200Y-115760760D01*
X142134841Y-115794885D01*
X141838429Y-115671804D01*
X141373611Y-115671398D01*
X140944019Y-115848901D01*
X140615057Y-116177291D01*
X140436804Y-116606571D01*
X140436398Y-117071389D01*
X140613901Y-117500981D01*
X140942291Y-117829943D01*
X141371571Y-118008196D01*
X141836389Y-118008602D01*
X142139341Y-117883425D01*
X142316200Y-117919240D01*
X143179800Y-117919240D01*
X143415117Y-117874962D01*
X143509384Y-117814303D01*
X143588310Y-117868231D01*
X143840200Y-117919240D01*
X144703800Y-117919240D01*
X144939117Y-117874962D01*
X145155241Y-117735890D01*
X145264079Y-117576600D01*
X145567749Y-117576600D01*
X145662110Y-117723241D01*
X145874310Y-117868231D01*
X146126200Y-117919240D01*
X146989800Y-117919240D01*
X147225117Y-117874962D01*
X147319384Y-117814303D01*
X147398310Y-117868231D01*
X147650200Y-117919240D01*
X148513800Y-117919240D01*
X148749117Y-117874962D01*
X148965241Y-117735890D01*
X149110231Y-117523690D01*
X149161240Y-117271800D01*
X149161240Y-116802470D01*
X149898255Y-116065455D01*
X150057930Y-115826485D01*
X150114000Y-115544600D01*
X150114000Y-114307018D01*
X150248981Y-114172272D01*
X150405921Y-113794319D01*
X150406089Y-113601821D01*
X151242070Y-112765840D01*
X153619098Y-112765840D01*
X153618998Y-112880389D01*
X153796501Y-113309981D01*
X154124891Y-113638943D01*
X154187643Y-113665000D01*
X153625996Y-113665000D01*
X153364472Y-113403019D01*
X152986519Y-113246079D01*
X152577277Y-113245722D01*
X152199050Y-113402002D01*
X151909419Y-113691128D01*
X151752479Y-114069081D01*
X151752122Y-114478323D01*
X151861951Y-114744129D01*
X151854160Y-114782600D01*
X151854160Y-115290600D01*
X151898438Y-115525917D01*
X151925428Y-115567860D01*
X151905169Y-115597510D01*
X151854160Y-115849400D01*
X151854160Y-116357400D01*
X151898438Y-116592717D01*
X152037510Y-116808841D01*
X152249710Y-116953831D01*
X152501600Y-117004840D01*
X152527000Y-117004840D01*
X152527000Y-121793000D01*
X118236690Y-121793000D01*
X118223893Y-116566950D01*
X128676400Y-116566950D01*
X128676400Y-116849690D01*
X128742137Y-117008395D01*
X128863605Y-117129862D01*
X129022309Y-117195600D01*
X129305050Y-117195600D01*
X129413000Y-117087650D01*
X129413000Y-116459000D01*
X129667000Y-116459000D01*
X129667000Y-117087650D01*
X129774950Y-117195600D01*
X130057691Y-117195600D01*
X130216395Y-117129862D01*
X130337863Y-117008395D01*
X130403600Y-116849690D01*
X130403600Y-116566950D01*
X131216400Y-116566950D01*
X131216400Y-116849690D01*
X131282137Y-117008395D01*
X131403605Y-117129862D01*
X131562309Y-117195600D01*
X131845050Y-117195600D01*
X131953000Y-117087650D01*
X131953000Y-116459000D01*
X132207000Y-116459000D01*
X132207000Y-117087650D01*
X132314950Y-117195600D01*
X132597691Y-117195600D01*
X132756395Y-117129862D01*
X132877863Y-117008395D01*
X132943600Y-116849690D01*
X132943600Y-116566950D01*
X132835650Y-116459000D01*
X132207000Y-116459000D01*
X131953000Y-116459000D01*
X131324350Y-116459000D01*
X131216400Y-116566950D01*
X130403600Y-116566950D01*
X130295650Y-116459000D01*
X129667000Y-116459000D01*
X129413000Y-116459000D01*
X128784350Y-116459000D01*
X128676400Y-116566950D01*
X118223893Y-116566950D01*
X118197522Y-105798360D01*
X119330376Y-105798360D01*
X119428990Y-105951611D01*
X119641190Y-106096601D01*
X119893080Y-106147610D01*
X120528080Y-106147610D01*
X120663034Y-106122217D01*
X120788430Y-106147610D01*
X122238770Y-106147610D01*
X122474087Y-106103332D01*
X122690211Y-105964260D01*
X122835201Y-105752060D01*
X122886210Y-105500170D01*
X122886210Y-104145391D01*
X122986800Y-104165400D01*
X127736595Y-104165400D01*
X127736600Y-104165401D01*
X128222608Y-104068727D01*
X128634626Y-103793426D01*
X128660026Y-103768026D01*
X128935327Y-103356008D01*
X129032001Y-102870000D01*
X128935327Y-102383992D01*
X128744127Y-102097840D01*
X143397930Y-102097840D01*
X144793329Y-103493239D01*
G36*
X165817582Y-111753618D02*
X166105995Y-111946330D01*
X166446200Y-112014000D01*
X166554307Y-112014000D01*
X166547800Y-112029709D01*
X166547800Y-112160050D01*
X166655750Y-112268000D01*
X167106600Y-112268000D01*
X167106600Y-112248000D01*
X167360600Y-112248000D01*
X167360600Y-112268000D01*
X167380600Y-112268000D01*
X167380600Y-112522000D01*
X167360600Y-112522000D01*
X167360600Y-112998250D01*
X167450014Y-113087664D01*
X167197314Y-113192078D01*
X166723565Y-113665000D01*
X166497000Y-113665000D01*
X166497000Y-113487200D01*
X166429329Y-113146994D01*
X166236618Y-112858582D01*
X166007986Y-112629950D01*
X166547800Y-112629950D01*
X166547800Y-112760291D01*
X166613538Y-112918995D01*
X166735005Y-113040463D01*
X166893710Y-113106200D01*
X166998650Y-113106200D01*
X167106600Y-112998250D01*
X167106600Y-112522000D01*
X166655750Y-112522000D01*
X166547800Y-112629950D01*
X166007986Y-112629950D01*
X165350287Y-111972251D01*
X165395396Y-111952376D01*
X165553274Y-111787289D01*
X165608665Y-111630702D01*
X165576835Y-111599982D01*
X165630860Y-111599982D01*
X165630860Y-111566896D01*
X165817582Y-111753618D01*
X165817582Y-111753618D01*
G37*
X165817582Y-111753618D02*
X166105995Y-111946330D01*
X166446200Y-112014000D01*
X166554307Y-112014000D01*
X166547800Y-112029709D01*
X166547800Y-112160050D01*
X166655750Y-112268000D01*
X167106600Y-112268000D01*
X167106600Y-112248000D01*
X167360600Y-112248000D01*
X167360600Y-112268000D01*
X167380600Y-112268000D01*
X167380600Y-112522000D01*
X167360600Y-112522000D01*
X167360600Y-112998250D01*
X167450014Y-113087664D01*
X167197314Y-113192078D01*
X166723565Y-113665000D01*
X166497000Y-113665000D01*
X166497000Y-113487200D01*
X166429329Y-113146994D01*
X166236618Y-112858582D01*
X166007986Y-112629950D01*
X166547800Y-112629950D01*
X166547800Y-112760291D01*
X166613538Y-112918995D01*
X166735005Y-113040463D01*
X166893710Y-113106200D01*
X166998650Y-113106200D01*
X167106600Y-112998250D01*
X167106600Y-112522000D01*
X166655750Y-112522000D01*
X166547800Y-112629950D01*
X166007986Y-112629950D01*
X165350287Y-111972251D01*
X165395396Y-111952376D01*
X165553274Y-111787289D01*
X165608665Y-111630702D01*
X165576835Y-111599982D01*
X165630860Y-111599982D01*
X165630860Y-111566896D01*
X165817582Y-111753618D01*
G36*
X122227395Y-77139990D02*
X121988425Y-77299665D01*
X120225665Y-79062425D01*
X120065990Y-79301395D01*
X120009920Y-79583280D01*
X120009920Y-94076520D01*
X120065990Y-94358405D01*
X120225665Y-94597375D01*
X121094488Y-95466198D01*
X121094322Y-95656923D01*
X121250602Y-96035150D01*
X121539728Y-96324781D01*
X121917681Y-96481721D01*
X122326923Y-96482078D01*
X122705150Y-96325798D01*
X122994781Y-96036672D01*
X123151721Y-95658719D01*
X123151978Y-95364311D01*
X123342923Y-95364478D01*
X123721150Y-95208198D01*
X124010781Y-94919072D01*
X124167721Y-94541119D01*
X124168078Y-94131877D01*
X124011798Y-93753650D01*
X123722672Y-93464019D01*
X123344719Y-93307079D01*
X123152221Y-93306911D01*
X122402600Y-92557290D01*
X122402600Y-88138000D01*
X123050560Y-88138000D01*
X123050560Y-89662000D01*
X123094838Y-89897317D01*
X123233910Y-90113441D01*
X123446110Y-90258431D01*
X123698000Y-90309440D01*
X125222000Y-90309440D01*
X125457317Y-90265162D01*
X125673441Y-90126090D01*
X125818431Y-89913890D01*
X125855492Y-89730876D01*
X126207630Y-90083629D01*
X126720900Y-90296757D01*
X127276661Y-90297242D01*
X127790303Y-90085010D01*
X128183629Y-89692370D01*
X128269949Y-89484488D01*
X128354990Y-89690303D01*
X128747630Y-90083629D01*
X129260900Y-90296757D01*
X129816661Y-90297242D01*
X130330303Y-90085010D01*
X130723629Y-89692370D01*
X130936757Y-89179100D01*
X130937242Y-88623339D01*
X130725010Y-88109697D01*
X130332370Y-87716371D01*
X129876151Y-87526933D01*
X130148795Y-87413999D01*
X130229390Y-87228995D01*
X129540000Y-86539605D01*
X128850610Y-87228995D01*
X128931205Y-87413999D01*
X129231386Y-87515961D01*
X128749697Y-87714990D01*
X128356371Y-88107630D01*
X128270051Y-88315512D01*
X128185010Y-88109697D01*
X127792370Y-87716371D01*
X127336151Y-87526933D01*
X127608795Y-87413999D01*
X127689390Y-87228995D01*
X127000000Y-86539605D01*
X126310610Y-87228995D01*
X126391205Y-87413999D01*
X126691386Y-87515961D01*
X126209697Y-87714990D01*
X125856237Y-88067833D01*
X125825162Y-87902683D01*
X125686090Y-87686559D01*
X125473890Y-87541569D01*
X125222000Y-87490560D01*
X124883962Y-87490560D01*
X125068795Y-87413999D01*
X125149390Y-87228995D01*
X124460000Y-86539605D01*
X123770610Y-87228995D01*
X123851205Y-87413999D01*
X124076605Y-87490560D01*
X123698000Y-87490560D01*
X123462683Y-87534838D01*
X123246559Y-87673910D01*
X123101569Y-87886110D01*
X123050560Y-88138000D01*
X122402600Y-88138000D01*
X122402600Y-86200895D01*
X123253256Y-86200895D01*
X123284226Y-86674807D01*
X123406001Y-86968795D01*
X123591005Y-87049390D01*
X124280395Y-86360000D01*
X124639605Y-86360000D01*
X125328995Y-87049390D01*
X125513999Y-86968795D01*
X125666744Y-86519105D01*
X125645950Y-86200895D01*
X125793256Y-86200895D01*
X125824226Y-86674807D01*
X125946001Y-86968795D01*
X126131005Y-87049390D01*
X126820395Y-86360000D01*
X127179605Y-86360000D01*
X127868995Y-87049390D01*
X128053999Y-86968795D01*
X128206744Y-86519105D01*
X128185950Y-86200895D01*
X128333256Y-86200895D01*
X128364226Y-86674807D01*
X128486001Y-86968795D01*
X128671005Y-87049390D01*
X129360395Y-86360000D01*
X129719605Y-86360000D01*
X130408995Y-87049390D01*
X130593999Y-86968795D01*
X130746744Y-86519105D01*
X130715774Y-86045193D01*
X130593999Y-85751205D01*
X130408995Y-85670610D01*
X129719605Y-86360000D01*
X129360395Y-86360000D01*
X128671005Y-85670610D01*
X128486001Y-85751205D01*
X128333256Y-86200895D01*
X128185950Y-86200895D01*
X128175774Y-86045193D01*
X128053999Y-85751205D01*
X127868995Y-85670610D01*
X127179605Y-86360000D01*
X126820395Y-86360000D01*
X126131005Y-85670610D01*
X125946001Y-85751205D01*
X125793256Y-86200895D01*
X125645950Y-86200895D01*
X125635774Y-86045193D01*
X125513999Y-85751205D01*
X125328995Y-85670610D01*
X124639605Y-86360000D01*
X124280395Y-86360000D01*
X123591005Y-85670610D01*
X123406001Y-85751205D01*
X123253256Y-86200895D01*
X122402600Y-86200895D01*
X122402600Y-85491005D01*
X123770610Y-85491005D01*
X124460000Y-86180395D01*
X125149390Y-85491005D01*
X126310610Y-85491005D01*
X127000000Y-86180395D01*
X127689390Y-85491005D01*
X128850610Y-85491005D01*
X129540000Y-86180395D01*
X130229390Y-85491005D01*
X130148795Y-85306001D01*
X129699105Y-85153256D01*
X129225193Y-85184226D01*
X128931205Y-85306001D01*
X128850610Y-85491005D01*
X127689390Y-85491005D01*
X127608795Y-85306001D01*
X127159105Y-85153256D01*
X126685193Y-85184226D01*
X126391205Y-85306001D01*
X126310610Y-85491005D01*
X125149390Y-85491005D01*
X125068795Y-85306001D01*
X124619105Y-85153256D01*
X124145193Y-85184226D01*
X123851205Y-85306001D01*
X123770610Y-85491005D01*
X122402600Y-85491005D01*
X122402600Y-80137310D01*
X123159830Y-79380080D01*
X129788642Y-79380080D01*
X129685112Y-79629410D01*
X129684450Y-80387265D01*
X129973858Y-81087686D01*
X130509275Y-81624039D01*
X131209190Y-81914668D01*
X131967045Y-81915330D01*
X132311199Y-81773129D01*
X135031325Y-84493255D01*
X135270295Y-84652930D01*
X135552180Y-84709000D01*
X145948400Y-84709000D01*
X146230285Y-84652930D01*
X146393475Y-84543890D01*
X146609323Y-84544078D01*
X146987550Y-84387798D01*
X147277181Y-84098672D01*
X147434121Y-83720719D01*
X147434478Y-83311477D01*
X147278198Y-82933250D01*
X146989072Y-82643619D01*
X146611119Y-82486679D01*
X146201877Y-82486322D01*
X145823650Y-82642602D01*
X145534019Y-82931728D01*
X145407757Y-83235800D01*
X135857290Y-83235800D01*
X133352920Y-80731430D01*
X133494448Y-80390590D01*
X133495110Y-79632735D01*
X133220695Y-78968600D01*
X138008050Y-78968600D01*
X138328020Y-79288570D01*
X138186492Y-79629410D01*
X138185830Y-80387265D01*
X138475238Y-81087686D01*
X139010655Y-81624039D01*
X139710570Y-81914668D01*
X140468425Y-81915330D01*
X141168846Y-81625922D01*
X141705199Y-81090505D01*
X141995828Y-80390590D01*
X141996490Y-79632735D01*
X141707082Y-78932314D01*
X141332543Y-78557120D01*
X142260010Y-78557120D01*
X144233745Y-80530855D01*
X144472715Y-80690530D01*
X144754600Y-80746600D01*
X146833144Y-80746600D01*
X146974078Y-81087686D01*
X147509495Y-81624039D01*
X148209410Y-81914668D01*
X148967265Y-81915330D01*
X149667686Y-81625922D01*
X150204039Y-81090505D01*
X150494668Y-80390590D01*
X150495330Y-79632735D01*
X150205922Y-78932314D01*
X149670505Y-78395961D01*
X148970590Y-78105332D01*
X148212735Y-78104670D01*
X147512314Y-78394078D01*
X146975961Y-78929495D01*
X146833160Y-79273400D01*
X145059710Y-79273400D01*
X143085975Y-77299665D01*
X142847005Y-77139990D01*
X142781699Y-77127000D01*
X178873241Y-77127000D01*
X178942758Y-113665000D01*
X174905722Y-113665000D01*
X174435505Y-113193961D01*
X173735590Y-112903332D01*
X172977735Y-112902670D01*
X172277314Y-113192078D01*
X171803565Y-113665000D01*
X169825722Y-113665000D01*
X169491896Y-113330591D01*
X169644350Y-113267598D01*
X169933981Y-112978472D01*
X170090921Y-112600519D01*
X170091189Y-112293322D01*
X170411389Y-112293602D01*
X170840981Y-112116099D01*
X171169943Y-111787709D01*
X171348196Y-111358429D01*
X171348602Y-110893611D01*
X171171099Y-110464019D01*
X170842709Y-110135057D01*
X170413429Y-109956804D01*
X169948611Y-109956398D01*
X169645659Y-110081575D01*
X169468800Y-110045760D01*
X169125950Y-110045760D01*
X173139255Y-106032455D01*
X173298930Y-105793485D01*
X173355000Y-105511600D01*
X173355000Y-102534639D01*
X173505150Y-102472598D01*
X173794781Y-102183472D01*
X173951721Y-101805519D01*
X173952078Y-101396277D01*
X173795798Y-101018050D01*
X173545429Y-100767244D01*
X173545678Y-100481877D01*
X173389398Y-100103650D01*
X173139029Y-99852844D01*
X173139278Y-99567477D01*
X172982998Y-99189250D01*
X172732629Y-98938444D01*
X172732878Y-98653077D01*
X172576598Y-98274850D01*
X172326229Y-98024044D01*
X172326478Y-97738677D01*
X172170198Y-97360450D01*
X171881072Y-97070819D01*
X171551188Y-96933839D01*
X171433598Y-96649250D01*
X171144472Y-96359619D01*
X170766519Y-96202679D01*
X170357277Y-96202322D01*
X169979050Y-96358602D01*
X169689419Y-96647728D01*
X169532479Y-97025681D01*
X169532122Y-97434923D01*
X169688402Y-97813150D01*
X169824400Y-97949386D01*
X169824400Y-104342890D01*
X167428870Y-106738420D01*
X165273143Y-106738420D01*
X165081603Y-106700320D01*
X164571680Y-106700320D01*
X164571680Y-106190397D01*
X164563622Y-106149888D01*
X167421715Y-103291795D01*
X167581390Y-103052825D01*
X167637460Y-102770940D01*
X167637460Y-96307650D01*
X167951150Y-96307650D01*
X168186467Y-96263372D01*
X168402591Y-96124300D01*
X168547581Y-95912100D01*
X168591132Y-95697040D01*
X174308340Y-95697040D01*
X174345688Y-95895527D01*
X174484760Y-96111651D01*
X174696960Y-96256641D01*
X174948850Y-96307650D01*
X177049430Y-96307650D01*
X177284747Y-96263372D01*
X177500871Y-96124300D01*
X177645861Y-95912100D01*
X177696870Y-95660210D01*
X177696870Y-94260670D01*
X177652592Y-94025353D01*
X177513520Y-93809229D01*
X177301320Y-93664239D01*
X177049430Y-93613230D01*
X174948850Y-93613230D01*
X174713533Y-93657508D01*
X174497409Y-93796580D01*
X174352419Y-94008780D01*
X174308868Y-94223840D01*
X168591660Y-94223840D01*
X168554312Y-94025353D01*
X168415240Y-93809229D01*
X168203040Y-93664239D01*
X167951150Y-93613230D01*
X165850570Y-93613230D01*
X165615253Y-93657508D01*
X165399129Y-93796580D01*
X165254139Y-94008780D01*
X165210588Y-94223840D01*
X164505950Y-94223840D01*
X163550600Y-93268490D01*
X163550600Y-89759790D01*
X165203130Y-89759790D01*
X165203130Y-91159330D01*
X165247408Y-91394647D01*
X165386480Y-91610771D01*
X165598680Y-91755761D01*
X165850570Y-91806770D01*
X167951150Y-91806770D01*
X168186467Y-91762492D01*
X168402591Y-91623420D01*
X168547581Y-91411220D01*
X168598590Y-91159330D01*
X168598590Y-89759790D01*
X174301410Y-89759790D01*
X174301410Y-91159330D01*
X174345688Y-91394647D01*
X174484760Y-91610771D01*
X174696960Y-91755761D01*
X174948850Y-91806770D01*
X177049430Y-91806770D01*
X177284747Y-91762492D01*
X177500871Y-91623420D01*
X177645861Y-91411220D01*
X177696870Y-91159330D01*
X177696870Y-89759790D01*
X177652592Y-89524473D01*
X177513520Y-89308349D01*
X177301320Y-89163359D01*
X177190278Y-89140872D01*
X177190602Y-88770211D01*
X177013099Y-88340619D01*
X176684709Y-88011657D01*
X176255429Y-87833404D01*
X175790611Y-87832998D01*
X175361019Y-88010501D01*
X175032057Y-88338891D01*
X174853804Y-88768171D01*
X174853488Y-89130294D01*
X174713533Y-89156628D01*
X174497409Y-89295700D01*
X174352419Y-89507900D01*
X174301410Y-89759790D01*
X168598590Y-89759790D01*
X168554312Y-89524473D01*
X168415240Y-89308349D01*
X168203040Y-89163359D01*
X168071682Y-89136758D01*
X168072002Y-88770211D01*
X167894499Y-88340619D01*
X167566109Y-88011657D01*
X167136829Y-87833404D01*
X166672011Y-87832998D01*
X166242419Y-88010501D01*
X165913457Y-88338891D01*
X165735204Y-88768171D01*
X165734884Y-89134118D01*
X165615253Y-89156628D01*
X165399129Y-89295700D01*
X165254139Y-89507900D01*
X165203130Y-89759790D01*
X163550600Y-89759790D01*
X163550600Y-87317369D01*
X163654310Y-87388231D01*
X163906200Y-87439240D01*
X164769800Y-87439240D01*
X165005117Y-87394962D01*
X165221241Y-87255890D01*
X165265584Y-87190991D01*
X165344310Y-87223600D01*
X165627050Y-87223600D01*
X165735000Y-87115650D01*
X165735000Y-87061795D01*
X165907041Y-86951090D01*
X165989000Y-86831139D01*
X165989000Y-87115650D01*
X166096950Y-87223600D01*
X166379690Y-87223600D01*
X166538395Y-87157863D01*
X166659862Y-87036395D01*
X166725600Y-86877691D01*
X166725600Y-86594950D01*
X166617650Y-86487000D01*
X166103040Y-86487000D01*
X166103040Y-86233000D01*
X166617650Y-86233000D01*
X166725600Y-86125050D01*
X166725600Y-85842309D01*
X166659862Y-85683605D01*
X166538395Y-85562137D01*
X166379690Y-85496400D01*
X166096950Y-85496400D01*
X165989000Y-85604350D01*
X165989000Y-85889270D01*
X165919690Y-85781559D01*
X165735000Y-85655366D01*
X165735000Y-85604350D01*
X165627050Y-85496400D01*
X165344310Y-85496400D01*
X165267106Y-85528378D01*
X165233890Y-85476759D01*
X165021690Y-85331769D01*
X164769800Y-85280760D01*
X164300470Y-85280760D01*
X159406975Y-80387265D01*
X163684890Y-80387265D01*
X163974298Y-81087686D01*
X164509715Y-81624039D01*
X165209630Y-81914668D01*
X165967485Y-81915330D01*
X166171710Y-81830946D01*
X166217523Y-81876759D01*
X166217398Y-82019389D01*
X166394901Y-82448981D01*
X166723291Y-82777943D01*
X167152571Y-82956196D01*
X167617389Y-82956602D01*
X168046981Y-82779099D01*
X168375943Y-82450709D01*
X168554196Y-82021429D01*
X168554602Y-81556611D01*
X168377099Y-81127019D01*
X168048709Y-80798057D01*
X167619429Y-80619804D01*
X167474914Y-80619678D01*
X167421812Y-80566576D01*
X167494888Y-80390590D01*
X167495550Y-79632735D01*
X167206142Y-78932314D01*
X166670725Y-78395961D01*
X165970810Y-78105332D01*
X165212955Y-78104670D01*
X164512534Y-78394078D01*
X163976181Y-78929495D01*
X163685552Y-79629410D01*
X163684890Y-80387265D01*
X159406975Y-80387265D01*
X158993872Y-79974162D01*
X158994170Y-79632735D01*
X158704762Y-78932314D01*
X158169345Y-78395961D01*
X157469430Y-78105332D01*
X156711575Y-78104670D01*
X156011154Y-78394078D01*
X155474801Y-78929495D01*
X155184172Y-79629410D01*
X155183510Y-80387265D01*
X155472918Y-81087686D01*
X156008335Y-81624039D01*
X156708250Y-81914668D01*
X157466105Y-81915330D01*
X158166526Y-81625922D01*
X158364542Y-81428252D01*
X161289690Y-84353400D01*
X154559000Y-84353400D01*
X154277115Y-84409470D01*
X154076195Y-84543721D01*
X154038145Y-84569145D01*
X153311540Y-85295750D01*
X153192370Y-85176371D01*
X152679100Y-84963243D01*
X152123339Y-84962758D01*
X151609697Y-85174990D01*
X151216371Y-85567630D01*
X151130051Y-85775512D01*
X151045010Y-85569697D01*
X150652370Y-85176371D01*
X150139100Y-84963243D01*
X149583339Y-84962758D01*
X149069697Y-85174990D01*
X148676371Y-85567630D01*
X148590051Y-85775512D01*
X148505010Y-85569697D01*
X148112370Y-85176371D01*
X147599100Y-84963243D01*
X147043339Y-84962758D01*
X146529697Y-85174990D01*
X146136371Y-85567630D01*
X146050051Y-85775512D01*
X145965010Y-85569697D01*
X145572370Y-85176371D01*
X145059100Y-84963243D01*
X144503339Y-84962758D01*
X143989697Y-85174990D01*
X143596371Y-85567630D01*
X143510051Y-85775512D01*
X143425010Y-85569697D01*
X143032370Y-85176371D01*
X142519100Y-84963243D01*
X141963339Y-84962758D01*
X141449697Y-85174990D01*
X141056371Y-85567630D01*
X140843243Y-86080900D01*
X140842758Y-86636661D01*
X140865818Y-86692472D01*
X140449145Y-87109145D01*
X140289470Y-87348115D01*
X140233400Y-87630000D01*
X140233400Y-89357200D01*
X140289470Y-89639085D01*
X140449145Y-89878055D01*
X141015720Y-90444630D01*
X141015720Y-96812746D01*
X140946850Y-96841202D01*
X140657219Y-97130328D01*
X140500279Y-97508281D01*
X140499922Y-97917523D01*
X140656202Y-98295750D01*
X140945328Y-98585381D01*
X141323281Y-98742321D01*
X141732523Y-98742678D01*
X142064569Y-98605479D01*
X142379688Y-98920598D01*
X142379522Y-99111323D01*
X142535802Y-99489550D01*
X142824928Y-99779181D01*
X143202881Y-99936121D01*
X143612123Y-99936478D01*
X143990350Y-99780198D01*
X144279981Y-99491072D01*
X144436921Y-99113119D01*
X144437052Y-98962916D01*
X144532905Y-98923310D01*
X151028400Y-98923310D01*
X151028400Y-99206050D01*
X151136350Y-99314000D01*
X151765000Y-99314000D01*
X151765000Y-98685350D01*
X152019000Y-98685350D01*
X152019000Y-99314000D01*
X152647650Y-99314000D01*
X152755600Y-99206050D01*
X152755600Y-98923310D01*
X152689863Y-98764605D01*
X152568395Y-98643138D01*
X152409691Y-98577400D01*
X152126950Y-98577400D01*
X152019000Y-98685350D01*
X151765000Y-98685350D01*
X151657050Y-98577400D01*
X151374309Y-98577400D01*
X151215605Y-98643138D01*
X151094137Y-98764605D01*
X151028400Y-98923310D01*
X144532905Y-98923310D01*
X144549150Y-98916598D01*
X144838781Y-98627472D01*
X144995721Y-98249519D01*
X144995889Y-98057021D01*
X151650855Y-91402055D01*
X151810530Y-91163085D01*
X151866600Y-90881200D01*
X151866600Y-90191163D01*
X152120900Y-90296757D01*
X152676661Y-90297242D01*
X153190303Y-90085010D01*
X153583629Y-89692370D01*
X153669949Y-89484488D01*
X153754990Y-89690303D01*
X154147630Y-90083629D01*
X154660900Y-90296757D01*
X154710891Y-90296801D01*
X157637480Y-93223390D01*
X157637480Y-101172970D01*
X157035655Y-100571145D01*
X156796685Y-100411470D01*
X156514800Y-100355400D01*
X156311251Y-100355400D01*
X156216890Y-100208759D01*
X156004690Y-100063769D01*
X155752800Y-100012760D01*
X154889200Y-100012760D01*
X154653883Y-100057038D01*
X154559616Y-100117697D01*
X154480690Y-100063769D01*
X154228800Y-100012760D01*
X153365200Y-100012760D01*
X153129883Y-100057038D01*
X152913759Y-100196110D01*
X152886832Y-100235519D01*
X152787890Y-100081759D01*
X152722991Y-100037416D01*
X152755600Y-99958690D01*
X152755600Y-99675950D01*
X152647650Y-99568000D01*
X152019000Y-99568000D01*
X152019000Y-99588000D01*
X151765000Y-99588000D01*
X151765000Y-99568000D01*
X151136350Y-99568000D01*
X151028400Y-99675950D01*
X151028400Y-99958690D01*
X151060378Y-100035894D01*
X151008759Y-100069110D01*
X150899921Y-100228400D01*
X149606000Y-100228400D01*
X149324115Y-100284470D01*
X149085145Y-100444145D01*
X146748500Y-102780790D01*
X144396615Y-100428905D01*
X144157645Y-100269230D01*
X143875760Y-100213160D01*
X124747292Y-100213160D01*
X125923062Y-99037389D01*
X130911398Y-99037389D01*
X131088901Y-99466981D01*
X131417291Y-99795943D01*
X131846571Y-99974196D01*
X132311389Y-99974602D01*
X132614341Y-99849425D01*
X132791200Y-99885240D01*
X133654800Y-99885240D01*
X133890117Y-99840962D01*
X134106241Y-99701890D01*
X134150584Y-99636991D01*
X134229310Y-99669600D01*
X134512050Y-99669600D01*
X134620000Y-99561650D01*
X134620000Y-98933000D01*
X134874000Y-98933000D01*
X134874000Y-99561650D01*
X134981950Y-99669600D01*
X135264690Y-99669600D01*
X135423395Y-99603863D01*
X135544862Y-99482395D01*
X135610600Y-99323691D01*
X135610600Y-99040950D01*
X135502650Y-98933000D01*
X134874000Y-98933000D01*
X134620000Y-98933000D01*
X134600000Y-98933000D01*
X134600000Y-98679000D01*
X134620000Y-98679000D01*
X134620000Y-98050350D01*
X134874000Y-98050350D01*
X134874000Y-98679000D01*
X135502650Y-98679000D01*
X135610600Y-98571050D01*
X135610600Y-98298000D01*
X135909050Y-98298000D01*
X136017000Y-98190050D01*
X136017000Y-97536000D01*
X136271000Y-97536000D01*
X136271000Y-98190050D01*
X136378950Y-98298000D01*
X136687091Y-98298000D01*
X136845795Y-98232262D01*
X136967263Y-98110795D01*
X137033000Y-97952090D01*
X137033000Y-97643950D01*
X136925050Y-97536000D01*
X136271000Y-97536000D01*
X136017000Y-97536000D01*
X135362950Y-97536000D01*
X135255000Y-97643950D01*
X135255000Y-97942400D01*
X134981950Y-97942400D01*
X134874000Y-98050350D01*
X134620000Y-98050350D01*
X134512050Y-97942400D01*
X134229310Y-97942400D01*
X134152106Y-97974378D01*
X134118890Y-97922759D01*
X133906690Y-97777769D01*
X133654800Y-97726760D01*
X132791200Y-97726760D01*
X132609841Y-97760885D01*
X132313429Y-97637804D01*
X131848611Y-97637398D01*
X131419019Y-97814901D01*
X131090057Y-98143291D01*
X130911804Y-98572571D01*
X130911398Y-99037389D01*
X125923062Y-99037389D01*
X128059451Y-96901000D01*
X133629400Y-96901000D01*
X134115408Y-96804327D01*
X134527426Y-96529026D01*
X134802727Y-96117008D01*
X134897304Y-95641540D01*
X135039360Y-95783596D01*
X135039360Y-96088200D01*
X135083638Y-96323517D01*
X135222710Y-96539641D01*
X135380493Y-96647449D01*
X135320737Y-96707205D01*
X135255000Y-96865910D01*
X135255000Y-97174050D01*
X135362950Y-97282000D01*
X136017000Y-97282000D01*
X136017000Y-97262000D01*
X136271000Y-97262000D01*
X136271000Y-97282000D01*
X136925050Y-97282000D01*
X137033000Y-97174050D01*
X137033000Y-96865910D01*
X136967263Y-96707205D01*
X136906431Y-96646374D01*
X137052641Y-96552290D01*
X137071360Y-96524894D01*
X137071360Y-96977200D01*
X137115638Y-97212517D01*
X137254710Y-97428641D01*
X137466910Y-97573631D01*
X137718800Y-97624640D01*
X138633200Y-97624640D01*
X138839175Y-97585883D01*
X139085571Y-97688196D01*
X139550389Y-97688602D01*
X139979981Y-97511099D01*
X140308943Y-97182709D01*
X140487196Y-96753429D01*
X140487602Y-96288611D01*
X140310099Y-95859019D01*
X139981709Y-95530057D01*
X139552429Y-95351804D01*
X139087611Y-95351398D01*
X138834267Y-95456077D01*
X138633200Y-95415360D01*
X137718800Y-95415360D01*
X137483483Y-95459638D01*
X137267359Y-95598710D01*
X137248640Y-95626106D01*
X137248640Y-95173800D01*
X137204362Y-94938483D01*
X137065290Y-94722359D01*
X136853090Y-94577369D01*
X136601200Y-94526360D01*
X136296596Y-94526360D01*
X135826240Y-94056004D01*
X135826240Y-93802200D01*
X135781962Y-93566883D01*
X135642890Y-93350759D01*
X135430690Y-93205769D01*
X135178800Y-93154760D01*
X134391344Y-93154760D01*
X134391602Y-92859611D01*
X134214099Y-92430019D01*
X133885709Y-92101057D01*
X133456429Y-91922804D01*
X132991611Y-91922398D01*
X132562019Y-92099901D01*
X132233057Y-92428291D01*
X132054804Y-92857571D01*
X132054398Y-93322389D01*
X132179575Y-93625341D01*
X132143760Y-93802200D01*
X132143760Y-94361000D01*
X127533400Y-94361000D01*
X127047392Y-94457673D01*
X126635374Y-94732974D01*
X126635372Y-94732977D01*
X122886210Y-98482138D01*
X122886210Y-97699830D01*
X122841932Y-97464513D01*
X122702860Y-97248389D01*
X122490660Y-97103399D01*
X122238770Y-97052390D01*
X120788430Y-97052390D01*
X120653476Y-97077783D01*
X120528080Y-97052390D01*
X119893080Y-97052390D01*
X119657763Y-97096668D01*
X119441639Y-97235740D01*
X119328284Y-97401640D01*
X118176960Y-97401640D01*
X118127312Y-77127000D01*
X122292701Y-77127000D01*
X122227395Y-77139990D01*
X122227395Y-77139990D01*
G37*
X122227395Y-77139990D02*
X121988425Y-77299665D01*
X120225665Y-79062425D01*
X120065990Y-79301395D01*
X120009920Y-79583280D01*
X120009920Y-94076520D01*
X120065990Y-94358405D01*
X120225665Y-94597375D01*
X121094488Y-95466198D01*
X121094322Y-95656923D01*
X121250602Y-96035150D01*
X121539728Y-96324781D01*
X121917681Y-96481721D01*
X122326923Y-96482078D01*
X122705150Y-96325798D01*
X122994781Y-96036672D01*
X123151721Y-95658719D01*
X123151978Y-95364311D01*
X123342923Y-95364478D01*
X123721150Y-95208198D01*
X124010781Y-94919072D01*
X124167721Y-94541119D01*
X124168078Y-94131877D01*
X124011798Y-93753650D01*
X123722672Y-93464019D01*
X123344719Y-93307079D01*
X123152221Y-93306911D01*
X122402600Y-92557290D01*
X122402600Y-88138000D01*
X123050560Y-88138000D01*
X123050560Y-89662000D01*
X123094838Y-89897317D01*
X123233910Y-90113441D01*
X123446110Y-90258431D01*
X123698000Y-90309440D01*
X125222000Y-90309440D01*
X125457317Y-90265162D01*
X125673441Y-90126090D01*
X125818431Y-89913890D01*
X125855492Y-89730876D01*
X126207630Y-90083629D01*
X126720900Y-90296757D01*
X127276661Y-90297242D01*
X127790303Y-90085010D01*
X128183629Y-89692370D01*
X128269949Y-89484488D01*
X128354990Y-89690303D01*
X128747630Y-90083629D01*
X129260900Y-90296757D01*
X129816661Y-90297242D01*
X130330303Y-90085010D01*
X130723629Y-89692370D01*
X130936757Y-89179100D01*
X130937242Y-88623339D01*
X130725010Y-88109697D01*
X130332370Y-87716371D01*
X129876151Y-87526933D01*
X130148795Y-87413999D01*
X130229390Y-87228995D01*
X129540000Y-86539605D01*
X128850610Y-87228995D01*
X128931205Y-87413999D01*
X129231386Y-87515961D01*
X128749697Y-87714990D01*
X128356371Y-88107630D01*
X128270051Y-88315512D01*
X128185010Y-88109697D01*
X127792370Y-87716371D01*
X127336151Y-87526933D01*
X127608795Y-87413999D01*
X127689390Y-87228995D01*
X127000000Y-86539605D01*
X126310610Y-87228995D01*
X126391205Y-87413999D01*
X126691386Y-87515961D01*
X126209697Y-87714990D01*
X125856237Y-88067833D01*
X125825162Y-87902683D01*
X125686090Y-87686559D01*
X125473890Y-87541569D01*
X125222000Y-87490560D01*
X124883962Y-87490560D01*
X125068795Y-87413999D01*
X125149390Y-87228995D01*
X124460000Y-86539605D01*
X123770610Y-87228995D01*
X123851205Y-87413999D01*
X124076605Y-87490560D01*
X123698000Y-87490560D01*
X123462683Y-87534838D01*
X123246559Y-87673910D01*
X123101569Y-87886110D01*
X123050560Y-88138000D01*
X122402600Y-88138000D01*
X122402600Y-86200895D01*
X123253256Y-86200895D01*
X123284226Y-86674807D01*
X123406001Y-86968795D01*
X123591005Y-87049390D01*
X124280395Y-86360000D01*
X124639605Y-86360000D01*
X125328995Y-87049390D01*
X125513999Y-86968795D01*
X125666744Y-86519105D01*
X125645950Y-86200895D01*
X125793256Y-86200895D01*
X125824226Y-86674807D01*
X125946001Y-86968795D01*
X126131005Y-87049390D01*
X126820395Y-86360000D01*
X127179605Y-86360000D01*
X127868995Y-87049390D01*
X128053999Y-86968795D01*
X128206744Y-86519105D01*
X128185950Y-86200895D01*
X128333256Y-86200895D01*
X128364226Y-86674807D01*
X128486001Y-86968795D01*
X128671005Y-87049390D01*
X129360395Y-86360000D01*
X129719605Y-86360000D01*
X130408995Y-87049390D01*
X130593999Y-86968795D01*
X130746744Y-86519105D01*
X130715774Y-86045193D01*
X130593999Y-85751205D01*
X130408995Y-85670610D01*
X129719605Y-86360000D01*
X129360395Y-86360000D01*
X128671005Y-85670610D01*
X128486001Y-85751205D01*
X128333256Y-86200895D01*
X128185950Y-86200895D01*
X128175774Y-86045193D01*
X128053999Y-85751205D01*
X127868995Y-85670610D01*
X127179605Y-86360000D01*
X126820395Y-86360000D01*
X126131005Y-85670610D01*
X125946001Y-85751205D01*
X125793256Y-86200895D01*
X125645950Y-86200895D01*
X125635774Y-86045193D01*
X125513999Y-85751205D01*
X125328995Y-85670610D01*
X124639605Y-86360000D01*
X124280395Y-86360000D01*
X123591005Y-85670610D01*
X123406001Y-85751205D01*
X123253256Y-86200895D01*
X122402600Y-86200895D01*
X122402600Y-85491005D01*
X123770610Y-85491005D01*
X124460000Y-86180395D01*
X125149390Y-85491005D01*
X126310610Y-85491005D01*
X127000000Y-86180395D01*
X127689390Y-85491005D01*
X128850610Y-85491005D01*
X129540000Y-86180395D01*
X130229390Y-85491005D01*
X130148795Y-85306001D01*
X129699105Y-85153256D01*
X129225193Y-85184226D01*
X128931205Y-85306001D01*
X128850610Y-85491005D01*
X127689390Y-85491005D01*
X127608795Y-85306001D01*
X127159105Y-85153256D01*
X126685193Y-85184226D01*
X126391205Y-85306001D01*
X126310610Y-85491005D01*
X125149390Y-85491005D01*
X125068795Y-85306001D01*
X124619105Y-85153256D01*
X124145193Y-85184226D01*
X123851205Y-85306001D01*
X123770610Y-85491005D01*
X122402600Y-85491005D01*
X122402600Y-80137310D01*
X123159830Y-79380080D01*
X129788642Y-79380080D01*
X129685112Y-79629410D01*
X129684450Y-80387265D01*
X129973858Y-81087686D01*
X130509275Y-81624039D01*
X131209190Y-81914668D01*
X131967045Y-81915330D01*
X132311199Y-81773129D01*
X135031325Y-84493255D01*
X135270295Y-84652930D01*
X135552180Y-84709000D01*
X145948400Y-84709000D01*
X146230285Y-84652930D01*
X146393475Y-84543890D01*
X146609323Y-84544078D01*
X146987550Y-84387798D01*
X147277181Y-84098672D01*
X147434121Y-83720719D01*
X147434478Y-83311477D01*
X147278198Y-82933250D01*
X146989072Y-82643619D01*
X146611119Y-82486679D01*
X146201877Y-82486322D01*
X145823650Y-82642602D01*
X145534019Y-82931728D01*
X145407757Y-83235800D01*
X135857290Y-83235800D01*
X133352920Y-80731430D01*
X133494448Y-80390590D01*
X133495110Y-79632735D01*
X133220695Y-78968600D01*
X138008050Y-78968600D01*
X138328020Y-79288570D01*
X138186492Y-79629410D01*
X138185830Y-80387265D01*
X138475238Y-81087686D01*
X139010655Y-81624039D01*
X139710570Y-81914668D01*
X140468425Y-81915330D01*
X141168846Y-81625922D01*
X141705199Y-81090505D01*
X141995828Y-80390590D01*
X141996490Y-79632735D01*
X141707082Y-78932314D01*
X141332543Y-78557120D01*
X142260010Y-78557120D01*
X144233745Y-80530855D01*
X144472715Y-80690530D01*
X144754600Y-80746600D01*
X146833144Y-80746600D01*
X146974078Y-81087686D01*
X147509495Y-81624039D01*
X148209410Y-81914668D01*
X148967265Y-81915330D01*
X149667686Y-81625922D01*
X150204039Y-81090505D01*
X150494668Y-80390590D01*
X150495330Y-79632735D01*
X150205922Y-78932314D01*
X149670505Y-78395961D01*
X148970590Y-78105332D01*
X148212735Y-78104670D01*
X147512314Y-78394078D01*
X146975961Y-78929495D01*
X146833160Y-79273400D01*
X145059710Y-79273400D01*
X143085975Y-77299665D01*
X142847005Y-77139990D01*
X142781699Y-77127000D01*
X178873241Y-77127000D01*
X178942758Y-113665000D01*
X174905722Y-113665000D01*
X174435505Y-113193961D01*
X173735590Y-112903332D01*
X172977735Y-112902670D01*
X172277314Y-113192078D01*
X171803565Y-113665000D01*
X169825722Y-113665000D01*
X169491896Y-113330591D01*
X169644350Y-113267598D01*
X169933981Y-112978472D01*
X170090921Y-112600519D01*
X170091189Y-112293322D01*
X170411389Y-112293602D01*
X170840981Y-112116099D01*
X171169943Y-111787709D01*
X171348196Y-111358429D01*
X171348602Y-110893611D01*
X171171099Y-110464019D01*
X170842709Y-110135057D01*
X170413429Y-109956804D01*
X169948611Y-109956398D01*
X169645659Y-110081575D01*
X169468800Y-110045760D01*
X169125950Y-110045760D01*
X173139255Y-106032455D01*
X173298930Y-105793485D01*
X173355000Y-105511600D01*
X173355000Y-102534639D01*
X173505150Y-102472598D01*
X173794781Y-102183472D01*
X173951721Y-101805519D01*
X173952078Y-101396277D01*
X173795798Y-101018050D01*
X173545429Y-100767244D01*
X173545678Y-100481877D01*
X173389398Y-100103650D01*
X173139029Y-99852844D01*
X173139278Y-99567477D01*
X172982998Y-99189250D01*
X172732629Y-98938444D01*
X172732878Y-98653077D01*
X172576598Y-98274850D01*
X172326229Y-98024044D01*
X172326478Y-97738677D01*
X172170198Y-97360450D01*
X171881072Y-97070819D01*
X171551188Y-96933839D01*
X171433598Y-96649250D01*
X171144472Y-96359619D01*
X170766519Y-96202679D01*
X170357277Y-96202322D01*
X169979050Y-96358602D01*
X169689419Y-96647728D01*
X169532479Y-97025681D01*
X169532122Y-97434923D01*
X169688402Y-97813150D01*
X169824400Y-97949386D01*
X169824400Y-104342890D01*
X167428870Y-106738420D01*
X165273143Y-106738420D01*
X165081603Y-106700320D01*
X164571680Y-106700320D01*
X164571680Y-106190397D01*
X164563622Y-106149888D01*
X167421715Y-103291795D01*
X167581390Y-103052825D01*
X167637460Y-102770940D01*
X167637460Y-96307650D01*
X167951150Y-96307650D01*
X168186467Y-96263372D01*
X168402591Y-96124300D01*
X168547581Y-95912100D01*
X168591132Y-95697040D01*
X174308340Y-95697040D01*
X174345688Y-95895527D01*
X174484760Y-96111651D01*
X174696960Y-96256641D01*
X174948850Y-96307650D01*
X177049430Y-96307650D01*
X177284747Y-96263372D01*
X177500871Y-96124300D01*
X177645861Y-95912100D01*
X177696870Y-95660210D01*
X177696870Y-94260670D01*
X177652592Y-94025353D01*
X177513520Y-93809229D01*
X177301320Y-93664239D01*
X177049430Y-93613230D01*
X174948850Y-93613230D01*
X174713533Y-93657508D01*
X174497409Y-93796580D01*
X174352419Y-94008780D01*
X174308868Y-94223840D01*
X168591660Y-94223840D01*
X168554312Y-94025353D01*
X168415240Y-93809229D01*
X168203040Y-93664239D01*
X167951150Y-93613230D01*
X165850570Y-93613230D01*
X165615253Y-93657508D01*
X165399129Y-93796580D01*
X165254139Y-94008780D01*
X165210588Y-94223840D01*
X164505950Y-94223840D01*
X163550600Y-93268490D01*
X163550600Y-89759790D01*
X165203130Y-89759790D01*
X165203130Y-91159330D01*
X165247408Y-91394647D01*
X165386480Y-91610771D01*
X165598680Y-91755761D01*
X165850570Y-91806770D01*
X167951150Y-91806770D01*
X168186467Y-91762492D01*
X168402591Y-91623420D01*
X168547581Y-91411220D01*
X168598590Y-91159330D01*
X168598590Y-89759790D01*
X174301410Y-89759790D01*
X174301410Y-91159330D01*
X174345688Y-91394647D01*
X174484760Y-91610771D01*
X174696960Y-91755761D01*
X174948850Y-91806770D01*
X177049430Y-91806770D01*
X177284747Y-91762492D01*
X177500871Y-91623420D01*
X177645861Y-91411220D01*
X177696870Y-91159330D01*
X177696870Y-89759790D01*
X177652592Y-89524473D01*
X177513520Y-89308349D01*
X177301320Y-89163359D01*
X177190278Y-89140872D01*
X177190602Y-88770211D01*
X177013099Y-88340619D01*
X176684709Y-88011657D01*
X176255429Y-87833404D01*
X175790611Y-87832998D01*
X175361019Y-88010501D01*
X175032057Y-88338891D01*
X174853804Y-88768171D01*
X174853488Y-89130294D01*
X174713533Y-89156628D01*
X174497409Y-89295700D01*
X174352419Y-89507900D01*
X174301410Y-89759790D01*
X168598590Y-89759790D01*
X168554312Y-89524473D01*
X168415240Y-89308349D01*
X168203040Y-89163359D01*
X168071682Y-89136758D01*
X168072002Y-88770211D01*
X167894499Y-88340619D01*
X167566109Y-88011657D01*
X167136829Y-87833404D01*
X166672011Y-87832998D01*
X166242419Y-88010501D01*
X165913457Y-88338891D01*
X165735204Y-88768171D01*
X165734884Y-89134118D01*
X165615253Y-89156628D01*
X165399129Y-89295700D01*
X165254139Y-89507900D01*
X165203130Y-89759790D01*
X163550600Y-89759790D01*
X163550600Y-87317369D01*
X163654310Y-87388231D01*
X163906200Y-87439240D01*
X164769800Y-87439240D01*
X165005117Y-87394962D01*
X165221241Y-87255890D01*
X165265584Y-87190991D01*
X165344310Y-87223600D01*
X165627050Y-87223600D01*
X165735000Y-87115650D01*
X165735000Y-87061795D01*
X165907041Y-86951090D01*
X165989000Y-86831139D01*
X165989000Y-87115650D01*
X166096950Y-87223600D01*
X166379690Y-87223600D01*
X166538395Y-87157863D01*
X166659862Y-87036395D01*
X166725600Y-86877691D01*
X166725600Y-86594950D01*
X166617650Y-86487000D01*
X166103040Y-86487000D01*
X166103040Y-86233000D01*
X166617650Y-86233000D01*
X166725600Y-86125050D01*
X166725600Y-85842309D01*
X166659862Y-85683605D01*
X166538395Y-85562137D01*
X166379690Y-85496400D01*
X166096950Y-85496400D01*
X165989000Y-85604350D01*
X165989000Y-85889270D01*
X165919690Y-85781559D01*
X165735000Y-85655366D01*
X165735000Y-85604350D01*
X165627050Y-85496400D01*
X165344310Y-85496400D01*
X165267106Y-85528378D01*
X165233890Y-85476759D01*
X165021690Y-85331769D01*
X164769800Y-85280760D01*
X164300470Y-85280760D01*
X159406975Y-80387265D01*
X163684890Y-80387265D01*
X163974298Y-81087686D01*
X164509715Y-81624039D01*
X165209630Y-81914668D01*
X165967485Y-81915330D01*
X166171710Y-81830946D01*
X166217523Y-81876759D01*
X166217398Y-82019389D01*
X166394901Y-82448981D01*
X166723291Y-82777943D01*
X167152571Y-82956196D01*
X167617389Y-82956602D01*
X168046981Y-82779099D01*
X168375943Y-82450709D01*
X168554196Y-82021429D01*
X168554602Y-81556611D01*
X168377099Y-81127019D01*
X168048709Y-80798057D01*
X167619429Y-80619804D01*
X167474914Y-80619678D01*
X167421812Y-80566576D01*
X167494888Y-80390590D01*
X167495550Y-79632735D01*
X167206142Y-78932314D01*
X166670725Y-78395961D01*
X165970810Y-78105332D01*
X165212955Y-78104670D01*
X164512534Y-78394078D01*
X163976181Y-78929495D01*
X163685552Y-79629410D01*
X163684890Y-80387265D01*
X159406975Y-80387265D01*
X158993872Y-79974162D01*
X158994170Y-79632735D01*
X158704762Y-78932314D01*
X158169345Y-78395961D01*
X157469430Y-78105332D01*
X156711575Y-78104670D01*
X156011154Y-78394078D01*
X155474801Y-78929495D01*
X155184172Y-79629410D01*
X155183510Y-80387265D01*
X155472918Y-81087686D01*
X156008335Y-81624039D01*
X156708250Y-81914668D01*
X157466105Y-81915330D01*
X158166526Y-81625922D01*
X158364542Y-81428252D01*
X161289690Y-84353400D01*
X154559000Y-84353400D01*
X154277115Y-84409470D01*
X154076195Y-84543721D01*
X154038145Y-84569145D01*
X153311540Y-85295750D01*
X153192370Y-85176371D01*
X152679100Y-84963243D01*
X152123339Y-84962758D01*
X151609697Y-85174990D01*
X151216371Y-85567630D01*
X151130051Y-85775512D01*
X151045010Y-85569697D01*
X150652370Y-85176371D01*
X150139100Y-84963243D01*
X149583339Y-84962758D01*
X149069697Y-85174990D01*
X148676371Y-85567630D01*
X148590051Y-85775512D01*
X148505010Y-85569697D01*
X148112370Y-85176371D01*
X147599100Y-84963243D01*
X147043339Y-84962758D01*
X146529697Y-85174990D01*
X146136371Y-85567630D01*
X146050051Y-85775512D01*
X145965010Y-85569697D01*
X145572370Y-85176371D01*
X145059100Y-84963243D01*
X144503339Y-84962758D01*
X143989697Y-85174990D01*
X143596371Y-85567630D01*
X143510051Y-85775512D01*
X143425010Y-85569697D01*
X143032370Y-85176371D01*
X142519100Y-84963243D01*
X141963339Y-84962758D01*
X141449697Y-85174990D01*
X141056371Y-85567630D01*
X140843243Y-86080900D01*
X140842758Y-86636661D01*
X140865818Y-86692472D01*
X140449145Y-87109145D01*
X140289470Y-87348115D01*
X140233400Y-87630000D01*
X140233400Y-89357200D01*
X140289470Y-89639085D01*
X140449145Y-89878055D01*
X141015720Y-90444630D01*
X141015720Y-96812746D01*
X140946850Y-96841202D01*
X140657219Y-97130328D01*
X140500279Y-97508281D01*
X140499922Y-97917523D01*
X140656202Y-98295750D01*
X140945328Y-98585381D01*
X141323281Y-98742321D01*
X141732523Y-98742678D01*
X142064569Y-98605479D01*
X142379688Y-98920598D01*
X142379522Y-99111323D01*
X142535802Y-99489550D01*
X142824928Y-99779181D01*
X143202881Y-99936121D01*
X143612123Y-99936478D01*
X143990350Y-99780198D01*
X144279981Y-99491072D01*
X144436921Y-99113119D01*
X144437052Y-98962916D01*
X144532905Y-98923310D01*
X151028400Y-98923310D01*
X151028400Y-99206050D01*
X151136350Y-99314000D01*
X151765000Y-99314000D01*
X151765000Y-98685350D01*
X152019000Y-98685350D01*
X152019000Y-99314000D01*
X152647650Y-99314000D01*
X152755600Y-99206050D01*
X152755600Y-98923310D01*
X152689863Y-98764605D01*
X152568395Y-98643138D01*
X152409691Y-98577400D01*
X152126950Y-98577400D01*
X152019000Y-98685350D01*
X151765000Y-98685350D01*
X151657050Y-98577400D01*
X151374309Y-98577400D01*
X151215605Y-98643138D01*
X151094137Y-98764605D01*
X151028400Y-98923310D01*
X144532905Y-98923310D01*
X144549150Y-98916598D01*
X144838781Y-98627472D01*
X144995721Y-98249519D01*
X144995889Y-98057021D01*
X151650855Y-91402055D01*
X151810530Y-91163085D01*
X151866600Y-90881200D01*
X151866600Y-90191163D01*
X152120900Y-90296757D01*
X152676661Y-90297242D01*
X153190303Y-90085010D01*
X153583629Y-89692370D01*
X153669949Y-89484488D01*
X153754990Y-89690303D01*
X154147630Y-90083629D01*
X154660900Y-90296757D01*
X154710891Y-90296801D01*
X157637480Y-93223390D01*
X157637480Y-101172970D01*
X157035655Y-100571145D01*
X156796685Y-100411470D01*
X156514800Y-100355400D01*
X156311251Y-100355400D01*
X156216890Y-100208759D01*
X156004690Y-100063769D01*
X155752800Y-100012760D01*
X154889200Y-100012760D01*
X154653883Y-100057038D01*
X154559616Y-100117697D01*
X154480690Y-100063769D01*
X154228800Y-100012760D01*
X153365200Y-100012760D01*
X153129883Y-100057038D01*
X152913759Y-100196110D01*
X152886832Y-100235519D01*
X152787890Y-100081759D01*
X152722991Y-100037416D01*
X152755600Y-99958690D01*
X152755600Y-99675950D01*
X152647650Y-99568000D01*
X152019000Y-99568000D01*
X152019000Y-99588000D01*
X151765000Y-99588000D01*
X151765000Y-99568000D01*
X151136350Y-99568000D01*
X151028400Y-99675950D01*
X151028400Y-99958690D01*
X151060378Y-100035894D01*
X151008759Y-100069110D01*
X150899921Y-100228400D01*
X149606000Y-100228400D01*
X149324115Y-100284470D01*
X149085145Y-100444145D01*
X146748500Y-102780790D01*
X144396615Y-100428905D01*
X144157645Y-100269230D01*
X143875760Y-100213160D01*
X124747292Y-100213160D01*
X125923062Y-99037389D01*
X130911398Y-99037389D01*
X131088901Y-99466981D01*
X131417291Y-99795943D01*
X131846571Y-99974196D01*
X132311389Y-99974602D01*
X132614341Y-99849425D01*
X132791200Y-99885240D01*
X133654800Y-99885240D01*
X133890117Y-99840962D01*
X134106241Y-99701890D01*
X134150584Y-99636991D01*
X134229310Y-99669600D01*
X134512050Y-99669600D01*
X134620000Y-99561650D01*
X134620000Y-98933000D01*
X134874000Y-98933000D01*
X134874000Y-99561650D01*
X134981950Y-99669600D01*
X135264690Y-99669600D01*
X135423395Y-99603863D01*
X135544862Y-99482395D01*
X135610600Y-99323691D01*
X135610600Y-99040950D01*
X135502650Y-98933000D01*
X134874000Y-98933000D01*
X134620000Y-98933000D01*
X134600000Y-98933000D01*
X134600000Y-98679000D01*
X134620000Y-98679000D01*
X134620000Y-98050350D01*
X134874000Y-98050350D01*
X134874000Y-98679000D01*
X135502650Y-98679000D01*
X135610600Y-98571050D01*
X135610600Y-98298000D01*
X135909050Y-98298000D01*
X136017000Y-98190050D01*
X136017000Y-97536000D01*
X136271000Y-97536000D01*
X136271000Y-98190050D01*
X136378950Y-98298000D01*
X136687091Y-98298000D01*
X136845795Y-98232262D01*
X136967263Y-98110795D01*
X137033000Y-97952090D01*
X137033000Y-97643950D01*
X136925050Y-97536000D01*
X136271000Y-97536000D01*
X136017000Y-97536000D01*
X135362950Y-97536000D01*
X135255000Y-97643950D01*
X135255000Y-97942400D01*
X134981950Y-97942400D01*
X134874000Y-98050350D01*
X134620000Y-98050350D01*
X134512050Y-97942400D01*
X134229310Y-97942400D01*
X134152106Y-97974378D01*
X134118890Y-97922759D01*
X133906690Y-97777769D01*
X133654800Y-97726760D01*
X132791200Y-97726760D01*
X132609841Y-97760885D01*
X132313429Y-97637804D01*
X131848611Y-97637398D01*
X131419019Y-97814901D01*
X131090057Y-98143291D01*
X130911804Y-98572571D01*
X130911398Y-99037389D01*
X125923062Y-99037389D01*
X128059451Y-96901000D01*
X133629400Y-96901000D01*
X134115408Y-96804327D01*
X134527426Y-96529026D01*
X134802727Y-96117008D01*
X134897304Y-95641540D01*
X135039360Y-95783596D01*
X135039360Y-96088200D01*
X135083638Y-96323517D01*
X135222710Y-96539641D01*
X135380493Y-96647449D01*
X135320737Y-96707205D01*
X135255000Y-96865910D01*
X135255000Y-97174050D01*
X135362950Y-97282000D01*
X136017000Y-97282000D01*
X136017000Y-97262000D01*
X136271000Y-97262000D01*
X136271000Y-97282000D01*
X136925050Y-97282000D01*
X137033000Y-97174050D01*
X137033000Y-96865910D01*
X136967263Y-96707205D01*
X136906431Y-96646374D01*
X137052641Y-96552290D01*
X137071360Y-96524894D01*
X137071360Y-96977200D01*
X137115638Y-97212517D01*
X137254710Y-97428641D01*
X137466910Y-97573631D01*
X137718800Y-97624640D01*
X138633200Y-97624640D01*
X138839175Y-97585883D01*
X139085571Y-97688196D01*
X139550389Y-97688602D01*
X139979981Y-97511099D01*
X140308943Y-97182709D01*
X140487196Y-96753429D01*
X140487602Y-96288611D01*
X140310099Y-95859019D01*
X139981709Y-95530057D01*
X139552429Y-95351804D01*
X139087611Y-95351398D01*
X138834267Y-95456077D01*
X138633200Y-95415360D01*
X137718800Y-95415360D01*
X137483483Y-95459638D01*
X137267359Y-95598710D01*
X137248640Y-95626106D01*
X137248640Y-95173800D01*
X137204362Y-94938483D01*
X137065290Y-94722359D01*
X136853090Y-94577369D01*
X136601200Y-94526360D01*
X136296596Y-94526360D01*
X135826240Y-94056004D01*
X135826240Y-93802200D01*
X135781962Y-93566883D01*
X135642890Y-93350759D01*
X135430690Y-93205769D01*
X135178800Y-93154760D01*
X134391344Y-93154760D01*
X134391602Y-92859611D01*
X134214099Y-92430019D01*
X133885709Y-92101057D01*
X133456429Y-91922804D01*
X132991611Y-91922398D01*
X132562019Y-92099901D01*
X132233057Y-92428291D01*
X132054804Y-92857571D01*
X132054398Y-93322389D01*
X132179575Y-93625341D01*
X132143760Y-93802200D01*
X132143760Y-94361000D01*
X127533400Y-94361000D01*
X127047392Y-94457673D01*
X126635374Y-94732974D01*
X126635372Y-94732977D01*
X122886210Y-98482138D01*
X122886210Y-97699830D01*
X122841932Y-97464513D01*
X122702860Y-97248389D01*
X122490660Y-97103399D01*
X122238770Y-97052390D01*
X120788430Y-97052390D01*
X120653476Y-97077783D01*
X120528080Y-97052390D01*
X119893080Y-97052390D01*
X119657763Y-97096668D01*
X119441639Y-97235740D01*
X119328284Y-97401640D01*
X118176960Y-97401640D01*
X118127312Y-77127000D01*
X122292701Y-77127000D01*
X122227395Y-77139990D01*
G36*
X158514397Y-112247680D02*
X159323086Y-112247680D01*
X159350280Y-112266261D01*
X159522160Y-112301068D01*
X159522160Y-112501680D01*
X159227520Y-112501680D01*
X159227520Y-112862360D01*
X159249177Y-112911513D01*
X159156090Y-113004600D01*
X157556200Y-113004600D01*
X157556200Y-112883950D01*
X157448250Y-112776000D01*
X156997400Y-112776000D01*
X156997400Y-112796000D01*
X156743400Y-112796000D01*
X156743400Y-112776000D01*
X156723400Y-112776000D01*
X156723400Y-112522000D01*
X156743400Y-112522000D01*
X156743400Y-112502000D01*
X156997400Y-112502000D01*
X156997400Y-112522000D01*
X157448250Y-112522000D01*
X157556200Y-112414050D01*
X157556200Y-112283709D01*
X157525494Y-112209580D01*
X158322857Y-112209580D01*
X158514397Y-112247680D01*
X158514397Y-112247680D01*
G37*
X158514397Y-112247680D02*
X159323086Y-112247680D01*
X159350280Y-112266261D01*
X159522160Y-112301068D01*
X159522160Y-112501680D01*
X159227520Y-112501680D01*
X159227520Y-112862360D01*
X159249177Y-112911513D01*
X159156090Y-113004600D01*
X157556200Y-113004600D01*
X157556200Y-112883950D01*
X157448250Y-112776000D01*
X156997400Y-112776000D01*
X156997400Y-112796000D01*
X156743400Y-112796000D01*
X156743400Y-112776000D01*
X156723400Y-112776000D01*
X156723400Y-112522000D01*
X156743400Y-112522000D01*
X156743400Y-112502000D01*
X156997400Y-112502000D01*
X156997400Y-112522000D01*
X157448250Y-112522000D01*
X157556200Y-112414050D01*
X157556200Y-112283709D01*
X157525494Y-112209580D01*
X158322857Y-112209580D01*
X158514397Y-112247680D01*
G36*
X164825680Y-111608334D02*
X164641270Y-111571653D01*
X164641270Y-111333280D01*
X164825680Y-111333280D01*
X164825680Y-111608334D01*
X164825680Y-111608334D01*
G37*
X164825680Y-111608334D02*
X164641270Y-111571653D01*
X164641270Y-111333280D01*
X164825680Y-111333280D01*
X164825680Y-111608334D01*
G36*
X157447989Y-108324699D02*
X157293942Y-108427630D01*
X157256325Y-108452765D01*
X157032170Y-108676920D01*
X156940250Y-108585000D01*
X156489400Y-108585000D01*
X156489400Y-108605000D01*
X156235400Y-108605000D01*
X156235400Y-108585000D01*
X156215400Y-108585000D01*
X156215400Y-108331000D01*
X156235400Y-108331000D01*
X156235400Y-108311000D01*
X156489400Y-108311000D01*
X156489400Y-108331000D01*
X156940250Y-108331000D01*
X157048200Y-108223050D01*
X157048200Y-108178600D01*
X157301890Y-108178600D01*
X157447989Y-108324699D01*
X157447989Y-108324699D01*
G37*
X157447989Y-108324699D02*
X157293942Y-108427630D01*
X157256325Y-108452765D01*
X157032170Y-108676920D01*
X156940250Y-108585000D01*
X156489400Y-108585000D01*
X156489400Y-108605000D01*
X156235400Y-108605000D01*
X156235400Y-108585000D01*
X156215400Y-108585000D01*
X156215400Y-108331000D01*
X156235400Y-108331000D01*
X156235400Y-108311000D01*
X156489400Y-108311000D01*
X156489400Y-108331000D01*
X156940250Y-108331000D01*
X157048200Y-108223050D01*
X157048200Y-108178600D01*
X157301890Y-108178600D01*
X157447989Y-108324699D01*
G36*
X150996110Y-101848241D02*
X151208310Y-101993231D01*
X151460200Y-102044240D01*
X152323800Y-102044240D01*
X152559117Y-101999962D01*
X152775241Y-101860890D01*
X152797304Y-101828600D01*
X152806749Y-101828600D01*
X152901110Y-101975241D01*
X153113310Y-102120231D01*
X153365200Y-102171240D01*
X154228800Y-102171240D01*
X154464117Y-102126962D01*
X154558384Y-102066303D01*
X154637310Y-102120231D01*
X154889200Y-102171240D01*
X155752800Y-102171240D01*
X155988117Y-102126962D01*
X156204241Y-101987890D01*
X156271112Y-101890022D01*
X156603688Y-102222598D01*
X156603522Y-102413323D01*
X156759802Y-102791550D01*
X157048928Y-103081181D01*
X157426881Y-103238121D01*
X157637480Y-103238305D01*
X157637480Y-103256080D01*
X157693550Y-103537965D01*
X157853225Y-103776935D01*
X159062420Y-104986130D01*
X159062420Y-105998857D01*
X159024320Y-106190397D01*
X159024320Y-106700320D01*
X158514397Y-106700320D01*
X158495074Y-106704164D01*
X158300575Y-106509665D01*
X158061605Y-106349990D01*
X157779720Y-106293920D01*
X151785630Y-106293920D01*
X151447240Y-105955530D01*
X151447240Y-105562344D01*
X151742389Y-105562602D01*
X152171981Y-105385099D01*
X152500943Y-105056709D01*
X152679196Y-104627429D01*
X152679602Y-104162611D01*
X152502099Y-103733019D01*
X152173709Y-103404057D01*
X151744429Y-103225804D01*
X151279611Y-103225398D01*
X150976659Y-103350575D01*
X150799800Y-103314760D01*
X149936200Y-103314760D01*
X149700883Y-103359038D01*
X149484759Y-103498110D01*
X149339769Y-103710310D01*
X149288760Y-103962200D01*
X149288760Y-104825800D01*
X149333038Y-105061117D01*
X149393697Y-105155384D01*
X149375921Y-105181400D01*
X148183251Y-105181400D01*
X148167303Y-105156616D01*
X148221231Y-105077690D01*
X148272240Y-104825800D01*
X148272240Y-103962200D01*
X148227962Y-103726883D01*
X148094004Y-103518706D01*
X149911110Y-101701600D01*
X150901749Y-101701600D01*
X150996110Y-101848241D01*
X150996110Y-101848241D01*
G37*
X150996110Y-101848241D02*
X151208310Y-101993231D01*
X151460200Y-102044240D01*
X152323800Y-102044240D01*
X152559117Y-101999962D01*
X152775241Y-101860890D01*
X152797304Y-101828600D01*
X152806749Y-101828600D01*
X152901110Y-101975241D01*
X153113310Y-102120231D01*
X153365200Y-102171240D01*
X154228800Y-102171240D01*
X154464117Y-102126962D01*
X154558384Y-102066303D01*
X154637310Y-102120231D01*
X154889200Y-102171240D01*
X155752800Y-102171240D01*
X155988117Y-102126962D01*
X156204241Y-101987890D01*
X156271112Y-101890022D01*
X156603688Y-102222598D01*
X156603522Y-102413323D01*
X156759802Y-102791550D01*
X157048928Y-103081181D01*
X157426881Y-103238121D01*
X157637480Y-103238305D01*
X157637480Y-103256080D01*
X157693550Y-103537965D01*
X157853225Y-103776935D01*
X159062420Y-104986130D01*
X159062420Y-105998857D01*
X159024320Y-106190397D01*
X159024320Y-106700320D01*
X158514397Y-106700320D01*
X158495074Y-106704164D01*
X158300575Y-106509665D01*
X158061605Y-106349990D01*
X157779720Y-106293920D01*
X151785630Y-106293920D01*
X151447240Y-105955530D01*
X151447240Y-105562344D01*
X151742389Y-105562602D01*
X152171981Y-105385099D01*
X152500943Y-105056709D01*
X152679196Y-104627429D01*
X152679602Y-104162611D01*
X152502099Y-103733019D01*
X152173709Y-103404057D01*
X151744429Y-103225804D01*
X151279611Y-103225398D01*
X150976659Y-103350575D01*
X150799800Y-103314760D01*
X149936200Y-103314760D01*
X149700883Y-103359038D01*
X149484759Y-103498110D01*
X149339769Y-103710310D01*
X149288760Y-103962200D01*
X149288760Y-104825800D01*
X149333038Y-105061117D01*
X149393697Y-105155384D01*
X149375921Y-105181400D01*
X148183251Y-105181400D01*
X148167303Y-105156616D01*
X148221231Y-105077690D01*
X148272240Y-104825800D01*
X148272240Y-103962200D01*
X148227962Y-103726883D01*
X148094004Y-103518706D01*
X149911110Y-101701600D01*
X150901749Y-101701600D01*
X150996110Y-101848241D01*
G36*
X166164260Y-102465830D02*
X164131470Y-104498620D01*
X164052250Y-104419400D01*
X163576000Y-104419400D01*
X163576000Y-104870250D01*
X163667920Y-104962170D01*
X163402916Y-105227174D01*
X163319615Y-105102505D01*
X163296600Y-105079490D01*
X163296600Y-104895650D01*
X163322000Y-104870250D01*
X163322000Y-104419400D01*
X163302000Y-104419400D01*
X163302000Y-104165400D01*
X163322000Y-104165400D01*
X163322000Y-104145400D01*
X163576000Y-104145400D01*
X163576000Y-104165400D01*
X164052250Y-104165400D01*
X164160200Y-104057450D01*
X164160200Y-103956329D01*
X164179841Y-103943690D01*
X164324831Y-103731490D01*
X164375840Y-103479600D01*
X164375840Y-102971600D01*
X164349972Y-102834125D01*
X164438943Y-102745309D01*
X164617196Y-102316029D01*
X164617446Y-102029750D01*
X164866571Y-102133196D01*
X165331389Y-102133602D01*
X165760981Y-101956099D01*
X166089943Y-101627709D01*
X166164260Y-101448734D01*
X166164260Y-102465830D01*
X166164260Y-102465830D01*
G37*
X166164260Y-102465830D02*
X164131470Y-104498620D01*
X164052250Y-104419400D01*
X163576000Y-104419400D01*
X163576000Y-104870250D01*
X163667920Y-104962170D01*
X163402916Y-105227174D01*
X163319615Y-105102505D01*
X163296600Y-105079490D01*
X163296600Y-104895650D01*
X163322000Y-104870250D01*
X163322000Y-104419400D01*
X163302000Y-104419400D01*
X163302000Y-104165400D01*
X163322000Y-104165400D01*
X163322000Y-104145400D01*
X163576000Y-104145400D01*
X163576000Y-104165400D01*
X164052250Y-104165400D01*
X164160200Y-104057450D01*
X164160200Y-103956329D01*
X164179841Y-103943690D01*
X164324831Y-103731490D01*
X164375840Y-103479600D01*
X164375840Y-102971600D01*
X164349972Y-102834125D01*
X164438943Y-102745309D01*
X164617196Y-102316029D01*
X164617446Y-102029750D01*
X164866571Y-102133196D01*
X165331389Y-102133602D01*
X165760981Y-101956099D01*
X166089943Y-101627709D01*
X166164260Y-101448734D01*
X166164260Y-102465830D01*
M02*
