G04 #@! TF.FileFunction,Soldermask,Bot*
%FSLAX46Y46*%
G04 Gerber Fmt 4.6, Leading zero omitted, Abs format (unit mm)*
G04 Created by KiCad (PCBNEW 4.0.2+e4-6225~38~ubuntu15.10.1-stable) date Mon 19 Jun 2017 22:11:17 SAST*
%MOMM*%
G01*
G04 APERTURE LIST*
%ADD10C,0.150000*%
%ADD11C,0.381000*%
%ADD12C,2.006600*%
%ADD13C,1.856740*%
%ADD14C,2.946400*%
%ADD15R,1.930400X1.930400*%
%ADD16C,1.930400*%
%ADD17C,1.805940*%
G04 APERTURE END LIST*
D10*
D11*
X115000000Y-139000000D02*
G75*
G03X121000000Y-145000000I6000000J0D01*
G01*
X176000000Y-145000000D02*
G75*
G03X182000000Y-139000000I0J6000000D01*
G01*
X121000000Y-74000000D02*
G75*
G03X115000000Y-80000000I0J-6000000D01*
G01*
X182000000Y-80000000D02*
G75*
G03X176000000Y-74000000I-6000000J0D01*
G01*
X115000000Y-139000000D02*
X115000000Y-80000000D01*
X176000000Y-74000000D02*
X121000000Y-74000000D01*
X182000000Y-139000000D02*
X182000000Y-80000000D01*
X121000000Y-145000000D02*
X176000000Y-145000000D01*
D12*
X118539260Y-98849180D03*
X118539260Y-104350820D03*
D13*
X121511060Y-99113340D03*
X121511060Y-104086660D03*
D14*
X170815000Y-117348000D03*
X168275000Y-114808000D03*
X168275000Y-119888000D03*
X173355000Y-119888000D03*
X173355000Y-114808000D03*
D15*
X160020000Y-86360000D03*
D16*
X160020000Y-88900000D03*
X157480000Y-86360000D03*
X157480000Y-88900000D03*
X154940000Y-86360000D03*
X154940000Y-88900000D03*
X152400000Y-86360000D03*
X152400000Y-88900000D03*
X149860000Y-86360000D03*
X149860000Y-88900000D03*
X147320000Y-86360000D03*
X147320000Y-88900000D03*
X144780000Y-86360000D03*
X144780000Y-88900000D03*
X142240000Y-86360000D03*
X142240000Y-88900000D03*
D15*
X124460000Y-111760000D03*
D16*
X124460000Y-109220000D03*
X127000000Y-111760000D03*
X127000000Y-109220000D03*
X129540000Y-111760000D03*
X129540000Y-109220000D03*
X132080000Y-111760000D03*
X132080000Y-109220000D03*
X134620000Y-111760000D03*
X134620000Y-109220000D03*
X137160000Y-111760000D03*
X137160000Y-109220000D03*
X139700000Y-111760000D03*
X139700000Y-109220000D03*
D15*
X124460000Y-88900000D03*
D16*
X124460000Y-86360000D03*
X127000000Y-88900000D03*
X127000000Y-86360000D03*
X129540000Y-88900000D03*
X129540000Y-86360000D03*
D17*
X163258500Y-110934500D03*
X163258500Y-109474000D03*
X163258500Y-108013500D03*
X161798000Y-108013500D03*
X161798000Y-109474000D03*
X161798000Y-110934500D03*
X160337500Y-108013500D03*
X160337500Y-109474000D03*
X160337500Y-110934500D03*
M02*
