M48
METRIC,TZ
T1C0.381
T2C0.406
T3C0.635
T4C1.016
T5C1.049
T6C1.199
T7C1.524
T8C1.702
%
G90
G05
T1
X160338Y-108014
X160338Y-109474
X160338Y-110935
X161798Y-108014
X161798Y-109474
X161798Y-110935
X163259Y-108014
X163259Y-109474
X163259Y-110935
T2
X122123Y-94437
X122123Y-95453
X123139Y-94336
X141478Y-103175
X141529Y-97714
X142240Y-103937
X143358Y-97231
X143408Y-98908
X143967Y-98044
X146406Y-83515
X148082Y-113208
X149377Y-113589
X152781Y-114275
X157277Y-108458
X157632Y-102210
X158191Y-112649
X159639Y-116738
X160655Y-114148
X160655Y-116738
X160731Y-102260
X163424Y-105232
X163576Y-114046
X163779Y-116484
X164236Y-113335
X164592Y-120421
X164795Y-116484
X165633Y-117602
X165811Y-116484
X165938Y-111963
X169062Y-112395
X170561Y-97231
X171298Y-97942
X171704Y-98857
X172110Y-99771
X172517Y-100686
X172923Y-101600
T3
X122987Y-102895
X127762Y-102870
X130175Y-105410
X132080Y-98806
X133223Y-93091
X134747Y-97409
X134874Y-102870
X139319Y-96520
X141605Y-114275
X141605Y-116840
X151511Y-104394
X151511Y-108966
X151714Y-113259
X151892Y-97917
X152908Y-102362
X154153Y-108483
X154788Y-112649
X156083Y-106172
X163449Y-102083
X165100Y-100965
X166370Y-105664
X166903Y-89002
X167005Y-86360
X167386Y-81788
X170180Y-111125
X171450Y-109220
X176022Y-89002
T4
X124460Y-86360
X124460Y-88900
X124460Y-109220
X124460Y-111760
X127000Y-86360
X127000Y-88900
X127000Y-109220
X127000Y-111760
X129540Y-86360
X129540Y-88900
X129540Y-109220
X129540Y-111760
X132080Y-109220
X132080Y-111760
X134620Y-109220
X134620Y-111760
X137160Y-109220
X137160Y-111760
X139700Y-109220
X139700Y-111760
X142240Y-86360
X142240Y-88900
X144780Y-86360
X144780Y-88900
X147320Y-86360
X147320Y-88900
X149860Y-86360
X149860Y-88900
X152400Y-86360
X152400Y-88900
X154940Y-86360
X154940Y-88900
X157480Y-86360
X157480Y-88900
X160020Y-86360
X160020Y-88900
T5
X121511Y-99113
X121511Y-104087
T6
X118539Y-98849
X118539Y-104351
T7
X170815Y-117348
T8
X168275Y-114808
X168275Y-119888
X173355Y-114808
X173355Y-119888
T0
M30
